<svg width="75" height="83" viewBox="0 0 75 83" fill="none" xmlns="http://www.w3.org/2000/svg">
<path d="M72 1.91699H2L7.22822 10.3402V66.6888C7.22822 73.195 10.9073 74.6279 12.7469 74.5311H28.1411C34.8216 74.5311 36.177 79.5657 36.2739 82.083C36.2739 75.8091 41.6957 74.4343 44.6971 74.5311H59.8008C64.6805 74.5311 65.7068 69.3029 65.61 66.6888V10.3402L72 1.91699Z" stroke="#242424" stroke-width="2"/>
<g clip-path="url(#clip0_107_4091)">
<path d="M32.3342 10.2862C31.4659 10.3087 30.9373 10.8426 30.6191 11.0371C28.1678 12.5364 26.0725 12.1789 23.5519 11.9124C23.365 11.8952 23.1717 11.9916 23.0728 12.1528C22.9748 12.3131 22.9766 12.5301 23.0773 12.6894C24.4104 14.7884 26.6037 16.4326 29.0254 17.4096C31.4209 18.3757 34.052 18.69 36.3389 18.0579H37.6638C39.9507 18.6909 42.5818 18.3757 44.9773 17.4096C47.3999 16.4335 49.5905 14.7884 50.9236 12.6894C51.0243 12.5301 51.0261 12.314 50.9281 12.1528C50.8301 11.9916 50.6368 11.8952 50.449 11.9124C48.8211 12.0654 46.3742 12.9037 43.3854 11.0389C43.0798 10.8264 42.5386 10.3105 41.6685 10.2862C41.379 10.2781 41.0599 10.3222 40.7129 10.4311C39.9012 10.686 39.3448 11.2118 39.0491 11.8457C38.7614 12.4616 38.6877 13.1532 38.6616 13.8726C38.5861 14.2823 38.4899 14.3625 38.3911 14.4174C38.2922 14.4723 38.0845 14.4993 37.7897 14.5065V14.5047H36.213V14.5065C35.92 14.4993 35.7123 14.4723 35.6134 14.4174C35.5155 14.3625 35.4193 14.2814 35.3447 13.8825C35.3186 13.1595 35.244 12.4643 34.9545 11.8457C34.6588 11.2118 34.1042 10.6742 33.2889 10.4311C32.9707 10.3357 32.6264 10.2781 32.3342 10.2862Z" fill="#242424"/>
<path d="M38.836 10.0692C38.8423 11.0858 38.0261 11.9142 37.0113 11.9214C35.9964 11.9277 35.1685 11.1101 35.1622 10.0935V10.0692C35.1559 9.05257 35.973 8.22416 36.987 8.21696C38.0018 8.21065 38.8297 9.02825 38.836 10.0449C38.836 10.053 38.836 10.0611 38.836 10.0692Z" fill="#242424"/>
<path d="M36.2696 11.1875C36.1294 11.1875 36.0161 11.301 36.0161 11.4414V11.4477L36.0817 13.8411H37.9173L37.9829 11.4477C37.9865 11.3073 37.875 11.1911 37.7357 11.1884H37.7294H36.2696V11.1875ZM36.2157 18.7053L36.746 38.0531V38.0666C36.7478 38.2071 36.8629 38.3187 37.0031 38.3169C37.1397 38.3151 37.2503 38.2044 37.253 38.0666V38.0531L37.7834 18.7053H36.2157Z" fill="#242424"/>
<path d="M39.3016 19.0187C39.2944 19.0187 39.2872 19.0187 39.28 19.0187C38.8144 19.0232 38.2202 19.1564 38.1483 19.7858C38.1546 20.0425 38.285 20.1937 38.4018 20.3072C38.6346 20.5332 38.9349 20.6728 39.3061 20.7844C40.0944 21.0158 40.8702 20.8051 40.8612 21.9415C40.8612 22.5619 40.4981 23.1616 39.8068 23.6397C39.3331 23.9675 38.7128 24.2187 38.0108 24.3448C37.9991 24.7554 37.9883 25.166 37.9775 25.5775C38.3838 25.6747 38.7434 25.8296 39.0283 26.0196C39.5254 26.351 39.7771 26.7544 39.7897 27.1569L39.7915 27.1686L39.7897 27.1902C39.7897 27.599 39.5497 28.0042 39.0517 28.3436C38.7434 28.5544 38.3434 28.7227 37.8885 28.8209C37.8769 29.2333 37.8643 29.6448 37.8526 30.0572C38.0539 30.1202 38.231 30.2022 38.3766 30.2967C38.7056 30.511 38.8504 30.7532 38.8576 30.9765V30.9946C38.8576 31.2215 38.7218 31.4637 38.3928 31.6825C38.2328 31.7887 38.0306 31.8806 37.8013 31.9463C37.7915 32.2984 37.7834 32.6505 37.7735 33.0025C38.213 32.9161 38.6131 32.7549 38.9501 32.5307C39.467 32.1867 39.8499 31.6546 39.8643 31.0288C39.8643 31.0171 39.8679 31.0072 39.8679 30.9955V30.9837V30.9801C39.8679 30.9684 39.8679 30.9567 39.8679 30.9441C39.849 30.3579 39.5057 29.86 39.0373 29.5196C39.2378 29.4269 39.4266 29.3197 39.6009 29.2009C40.2877 28.7335 40.7776 28.0303 40.7857 27.2118L40.7875 27.192C40.7875 27.1812 40.7875 27.1713 40.7875 27.1605V27.1407V27.1271C40.7614 26.3113 40.2625 25.6171 39.5731 25.1579C39.5057 25.1129 39.4365 25.0723 39.3654 25.0309C39.7241 24.8868 40.0558 24.7104 40.3542 24.5042C41.2397 23.8928 41.8536 22.986 41.8536 21.9442C41.8203 21.0744 41.308 19.2753 39.8239 19.0628C39.6414 19.034 39.4544 19.0187 39.3016 19.0187ZM34.6821 19.0178C34.6633 19.0178 34.6453 19.0178 34.6273 19.0187C34.4116 19.0232 34.2354 19.0511 34.1743 19.0601C32.6911 19.278 32.1787 21.0708 32.1445 21.9415C32.1445 22.9842 32.7585 23.8901 33.6439 24.5015C33.9423 24.7077 34.2749 24.8841 34.6327 25.0282C34.5518 25.075 34.4736 25.1255 34.3972 25.1768C33.7041 25.6486 33.2106 26.3618 33.2106 27.1902C33.2106 28.0186 33.705 28.7272 34.3972 29.1991C34.5716 29.3179 34.7603 29.426 34.9608 29.5178C34.479 29.8681 34.1302 30.3886 34.1302 30.9937C34.1302 31.6348 34.5221 32.1795 35.048 32.5289C35.3869 32.754 35.7887 32.9143 36.231 33.0007C36.2202 32.6487 36.2094 32.2966 36.1995 31.9445C35.9694 31.8788 35.7662 31.7878 35.6062 31.6807C35.2772 31.4619 35.1415 31.2197 35.1415 30.9928C35.1415 30.7658 35.2772 30.5218 35.6062 30.303C35.7536 30.2049 35.9361 30.1193 36.142 30.0554C36.1303 29.6421 36.1177 29.2297 36.106 28.8173C35.653 28.7191 35.2547 28.5517 34.9464 28.3418C34.4484 28.0033 34.2102 27.5972 34.2102 27.1884C34.2102 26.7796 34.4484 26.3699 34.9464 26.0313C35.2341 25.8359 35.5999 25.6756 36.017 25.5757C36.0062 25.1642 35.9945 24.7527 35.9838 24.3412C35.2835 24.2151 34.6651 23.9648 34.1913 23.6379C33.5001 23.1598 33.1369 22.5592 33.1369 21.9397C33.1279 20.8033 33.9037 21.014 34.692 20.7826C35.0633 20.671 35.3635 20.5314 35.5963 20.3054C35.7132 20.1928 35.8435 20.0407 35.8498 19.784C35.777 19.1402 35.1532 19.0178 34.6821 19.0178Z" fill="#242424"/>
</g>
<path d="M24.2151 46.99L23.9445 46.1016H22.5839L22.3133 46.99H21.4606L22.7779 43.2425H23.7454L25.0678 46.99H24.2151ZM23.7556 45.4379C23.5054 44.6329 23.3642 44.1776 23.3318 44.0721C23.3012 43.9666 23.2791 43.8832 23.2655 43.8219C23.2093 44.0398 23.0485 44.5784 22.783 45.4379H23.7556Z" fill="#242424"/>
<path d="M27.585 46.99L26.6864 44.0619H26.6634C26.6957 44.6576 26.7119 45.055 26.7119 45.2541V46.99H26.0048V43.2578H27.0821L27.9654 46.1118H27.9807L28.9176 43.2578H29.9949V46.99H29.2571V45.2235C29.2571 45.1401 29.2579 45.0439 29.2596 44.935C29.263 44.8261 29.275 44.5367 29.2954 44.067H29.2724L28.31 46.99H27.585Z" fill="#242424"/>
<path d="M33.5511 46.99H31.4016V43.2578H33.5511V43.9062H32.193V44.7257H33.4566V45.3741H32.193V46.3365H33.5511V46.99Z" fill="#242424"/>
<path d="M35.5884 44.9146H35.8436C36.0938 44.9146 36.2785 44.8729 36.3976 44.7895C36.5167 44.7061 36.5763 44.575 36.5763 44.3963C36.5763 44.2193 36.515 44.0934 36.3925 44.0185C36.2717 43.9436 36.0836 43.9062 35.8283 43.9062H35.5884V44.9146ZM35.5884 45.5579V46.99H34.797V43.2578H35.8845C36.3917 43.2578 36.7669 43.3505 37.0103 43.536C37.2537 43.7198 37.3754 43.9998 37.3754 44.3759C37.3754 44.5955 37.3149 44.7912 37.1941 44.9631C37.0733 45.1333 36.9022 45.2669 36.681 45.3639C37.2426 46.2029 37.6085 46.745 37.7787 46.99H36.9005L36.0096 45.5579H35.5884Z" fill="#242424"/>
<path d="M38.7132 46.99V43.2578H39.5045V46.99H38.7132Z" fill="#242424"/>
<path d="M42.494 43.8628C42.1962 43.8628 41.9656 43.9751 41.8022 44.1998C41.6388 44.4227 41.5571 44.7342 41.5571 45.1341C41.5571 45.9663 41.8694 46.3824 42.494 46.3824C42.7561 46.3824 43.0735 46.3169 43.4462 46.1859V46.8496C43.1399 46.9773 42.7978 47.0411 42.42 47.0411C41.8771 47.0411 41.4618 46.8768 41.1742 46.5484C40.8866 46.2182 40.7428 45.7451 40.7428 45.129C40.7428 44.741 40.8134 44.4014 40.9547 44.1104C41.0959 43.8177 41.2984 43.5939 41.5622 43.439C41.8277 43.2824 42.1383 43.2042 42.494 43.2042C42.8565 43.2042 43.2207 43.2918 43.5866 43.4671L43.3314 44.1104C43.1918 44.044 43.0514 43.9862 42.9101 43.9368C42.7689 43.8875 42.6302 43.8628 42.494 43.8628Z" fill="#242424"/>
<path d="M46.9922 46.99L46.7216 46.1016H45.361L45.0904 46.99H44.2377L45.555 43.2425H46.5225L47.8449 46.99H46.9922ZM46.5327 45.4379C46.2825 44.6329 46.1413 44.1776 46.109 44.0721C46.0783 43.9666 46.0562 43.8832 46.0426 43.8219C45.9864 44.0398 45.8256 44.5784 45.5601 45.4379H46.5327Z" fill="#242424"/>
<path d="M52.0929 46.99H51.0871L49.4635 44.1666H49.4405C49.4729 44.6652 49.489 45.0209 49.489 45.2337V46.99H48.7819V43.2578H49.7801L51.4011 46.0531H51.419C51.3934 45.5681 51.3807 45.2252 51.3807 45.0243V43.2578H52.0929V46.99Z" fill="#242424"/>
<path d="M22.4313 51.9851H22.6916C22.935 51.9851 23.1171 51.9374 23.238 51.8421C23.3588 51.7451 23.4192 51.6047 23.4192 51.4209C23.4192 51.2354 23.3681 51.0984 23.266 51.0099C23.1656 50.9214 23.0073 50.8771 22.7912 50.8771H22.4313V51.9851ZM24.2182 51.3928C24.2182 51.7945 24.0923 52.1017 23.8404 52.3144C23.5902 52.5271 23.2337 52.6335 22.7708 52.6335H22.4313V53.961H21.6399V50.2287H22.832C23.2848 50.2287 23.6285 50.3266 23.8634 50.5223C24.1 50.7163 24.2182 51.0065 24.2182 51.3928Z" fill="#242424"/>
<path d="M28.7752 52.0897C28.7752 52.7075 28.622 53.1824 28.3157 53.5142C28.0093 53.8461 27.5702 54.012 26.9984 54.012C26.4266 54.012 25.9875 53.8461 25.6811 53.5142C25.3748 53.1824 25.2216 52.7058 25.2216 52.0846C25.2216 51.4635 25.3748 50.9895 25.6811 50.6627C25.9892 50.3342 26.43 50.17 27.0035 50.17C27.577 50.17 28.0153 50.3351 28.3182 50.6653C28.6229 50.9954 28.7752 51.4703 28.7752 52.0897ZM26.0513 52.0897C26.0513 52.5067 26.1304 52.8207 26.2887 53.0317C26.447 53.2428 26.6835 53.3483 26.9984 53.3483C27.6298 53.3483 27.9455 52.9288 27.9455 52.0897C27.9455 51.249 27.6315 50.8286 27.0035 50.8286C26.6887 50.8286 26.4512 50.935 26.2913 51.1477C26.1313 51.3588 26.0513 51.6728 26.0513 52.0897Z" fill="#242424"/>
<path d="M33.11 52.0591C33.11 52.6735 32.9347 53.1441 32.5841 53.4708C32.2352 53.7976 31.7306 53.961 31.0703 53.961H30.0134V50.2287H31.1852C31.7944 50.2287 32.2676 50.3896 32.6045 50.7112C32.9415 51.0329 33.11 51.4822 33.11 52.0591ZM32.288 52.0795C32.288 51.2779 31.934 50.8771 31.226 50.8771H30.8048V53.3075H31.1443C31.9068 53.3075 32.288 52.8981 32.288 52.0795Z" fill="#242424"/>
<path d="M34.3482 53.961V50.2287H35.1396V53.961H34.3482Z" fill="#242424"/>
<path d="M38.8286 53.961L38.558 53.0726H37.1973L36.9267 53.961H36.0741L37.3913 50.2134H38.3589L39.6812 53.961H38.8286ZM38.3691 52.4089C38.1189 51.6039 37.9777 51.1486 37.9453 51.0431C37.9147 50.9376 37.8926 50.8542 37.8789 50.7929C37.8228 51.0107 37.6619 51.5494 37.3965 52.4089H38.3691Z" fill="#242424"/>
<path d="M42.0581 53.961H41.2667V50.8874H40.2532V50.2287H43.0715V50.8874H42.0581V53.961Z" fill="#242424"/>
<path d="M44.902 51.8855H45.1573C45.4075 51.8855 45.5921 51.8438 45.7113 51.7604C45.8304 51.677 45.89 51.546 45.89 51.3673C45.89 51.1903 45.8287 51.0644 45.7062 50.9895C45.5853 50.9146 45.3973 50.8771 45.142 50.8771H44.902V51.8855ZM44.902 52.5288V53.961H44.1106V50.2287H45.1982C45.7053 50.2287 46.0806 50.3215 46.324 50.507C46.5673 50.6908 46.689 50.9708 46.689 51.3469C46.689 51.5664 46.6286 51.7621 46.5078 51.934C46.3869 52.1042 46.2159 52.2378 45.9946 52.3348C46.5563 53.1739 46.9222 53.7159 47.0924 53.961H46.2142L45.3232 52.5288H44.902Z" fill="#242424"/>
<path d="M48.0268 53.961V50.2287H48.8182V53.961H48.0268Z" fill="#242424"/>
<path d="M51.8077 50.8337C51.5099 50.8337 51.2793 50.9461 51.1159 51.1707C50.9525 51.3937 50.8708 51.7051 50.8708 52.1051C50.8708 52.9373 51.1831 53.3534 51.8077 53.3534C52.0698 53.3534 52.3872 53.2879 52.7599 53.1568V53.8206C52.4536 53.9482 52.1115 54.012 51.7337 54.012C51.1908 54.012 50.7755 53.8478 50.4879 53.5193C50.2003 53.1892 50.0564 52.716 50.0564 52.1C50.0564 51.7119 50.1271 51.3724 50.2683 51.0814C50.4096 50.7886 50.6121 50.5649 50.8759 50.41C51.1414 50.2534 51.452 50.1751 51.8077 50.1751C52.1702 50.1751 52.5344 50.2628 52.9003 50.4381L52.645 51.0814C52.5055 51.015 52.3651 50.9571 52.2238 50.9078C52.0825 50.8584 51.9438 50.8337 51.8077 50.8337Z" fill="#242424"/>
<path d="M25.8342 60.9319L24.9356 58.0038H24.9126C24.9449 58.5995 24.9611 58.9969 24.9611 59.196V60.9319H24.254V57.1997H25.3313L26.2146 60.0538H26.2299L27.1668 57.1997H28.2441V60.9319H27.5063V59.1654C27.5063 59.082 27.5071 58.9858 27.5089 58.8769C27.5123 58.768 27.5242 58.4787 27.5446 58.0089H27.5216L26.5592 60.9319H25.8342Z" fill="#242424"/>
<path d="M31.8003 60.9319H29.6508V57.1997H31.8003V57.8481H30.4422V58.6676H31.7058V59.316H30.4422V60.2784H31.8003V60.9319Z" fill="#242424"/>
<path d="M36.1428 59.0301C36.1428 59.6445 35.9675 60.115 35.6169 60.4418C35.268 60.7686 34.7634 60.9319 34.1031 60.9319H33.0462V57.1997H34.2179C34.8272 57.1997 35.3003 57.3605 35.6373 57.6822C35.9743 58.0038 36.1428 58.4531 36.1428 59.0301ZM35.3208 59.0505C35.3208 58.2489 34.9668 57.8481 34.2588 57.8481H33.8376V60.2784H34.1771C34.9395 60.2784 35.3208 59.8691 35.3208 59.0505Z" fill="#242424"/>
<path d="M37.381 60.9319V57.1997H38.1724V60.9319H37.381Z" fill="#242424"/>
<path d="M41.1619 57.8047C40.8641 57.8047 40.6335 57.917 40.4701 58.1417C40.3067 58.3646 40.225 58.6761 40.225 59.076C40.225 59.9082 40.5373 60.3244 41.1619 60.3244C41.424 60.3244 41.7414 60.2588 42.1141 60.1278V60.7915C41.8078 60.9192 41.4657 60.983 41.0879 60.983C40.545 60.983 40.1297 60.8188 39.8421 60.4903C39.5545 60.1601 39.4106 59.687 39.4106 59.0709C39.4106 58.6829 39.4813 58.3434 39.6225 58.0523C39.7638 57.7596 39.9663 57.5358 40.2301 57.3809C40.4956 57.2244 40.8062 57.1461 41.1619 57.1461C41.5244 57.1461 41.8886 57.2337 42.2545 57.409L41.9992 58.0523C41.8597 57.986 41.7193 57.9281 41.578 57.8787C41.4367 57.8294 41.298 57.8047 41.1619 57.8047Z" fill="#242424"/>
<path d="M45.6601 60.9319L45.3895 60.0435H44.0288L43.7582 60.9319H42.9056L44.2229 57.1844H45.1904L46.5128 60.9319H45.6601ZM45.2006 59.3798C44.9504 58.5748 44.8092 58.1196 44.7768 58.014C44.7462 57.9085 44.7241 57.8251 44.7105 57.7639C44.6543 57.9817 44.4935 58.5204 44.228 59.3798H45.2006Z" fill="#242424"/>
<path d="M47.4498 60.9319V57.1997H48.2411V60.2784H49.755V60.9319H47.4498Z" fill="#242424"/>
<path d="M19.8583 67.9029L19.5877 67.0145H18.227L17.9564 67.9029H17.1038L18.421 64.1553H19.3886L20.7109 67.9029H19.8583ZM19.3988 66.3508C19.1486 65.5458 19.0073 65.0905 18.975 64.985C18.9444 64.8795 18.9222 64.7961 18.9086 64.7348C18.8525 64.9527 18.6916 65.4913 18.4261 66.3508H19.3988Z" fill="#242424"/>
<path d="M23.851 66.8664C23.851 67.2034 23.7293 67.4689 23.486 67.6629C23.2443 67.8569 22.9073 67.9539 22.475 67.9539C22.0768 67.9539 21.7245 67.8791 21.4182 67.7293V66.9941C21.6701 67.1064 21.8828 67.1855 22.0564 67.2315C22.2317 67.2774 22.3917 67.3004 22.5363 67.3004C22.7099 67.3004 22.8427 67.2672 22.9346 67.2009C23.0282 67.1345 23.075 67.0358 23.075 66.9047C23.075 66.8315 23.0545 66.7669 23.0137 66.7107C22.9729 66.6528 22.9124 66.5975 22.8324 66.5448C22.7542 66.492 22.5933 66.4078 22.35 66.292C22.1219 66.1848 21.9509 66.0819 21.8368 65.9832C21.7228 65.8844 21.6318 65.7696 21.5637 65.6385C21.4956 65.5075 21.4616 65.3543 21.4616 65.179C21.4616 64.8488 21.573 64.5893 21.796 64.4004C22.0206 64.2115 22.3304 64.117 22.7252 64.117C22.9192 64.117 23.1039 64.14 23.2792 64.186C23.4562 64.2319 23.6408 64.2966 23.8332 64.38L23.5779 64.9952C23.3788 64.9135 23.2137 64.8565 23.0826 64.8242C22.9533 64.7918 22.8256 64.7757 22.6997 64.7757C22.5499 64.7757 22.4351 64.8105 22.3551 64.8803C22.2751 64.9501 22.2351 65.0412 22.2351 65.1535C22.2351 65.2233 22.2512 65.2845 22.2836 65.3373C22.3159 65.3883 22.367 65.4385 22.4368 65.4879C22.5082 65.5356 22.6759 65.6224 22.9397 65.7483C23.2886 65.9151 23.5277 66.0827 23.657 66.2512C23.7864 66.418 23.851 66.6231 23.851 66.8664Z" fill="#242424"/>
<path d="M27.1954 66.8664C27.1954 67.2034 27.0737 67.4689 26.8303 67.6629C26.5886 67.8569 26.2517 67.9539 25.8194 67.9539C25.4211 67.9539 25.0688 67.8791 24.7625 67.7293V66.9941C25.0144 67.1064 25.2271 67.1855 25.4007 67.2315C25.576 67.2774 25.736 67.3004 25.8807 67.3004C26.0542 67.3004 26.187 67.2672 26.2789 67.2009C26.3725 67.1345 26.4193 67.0358 26.4193 66.9047C26.4193 66.8315 26.3989 66.7669 26.358 66.7107C26.3172 66.6528 26.2568 66.5975 26.1768 66.5448C26.0985 66.492 25.9377 66.4078 25.6943 66.292C25.4662 66.1848 25.2952 66.0819 25.1812 65.9832C25.0671 65.8844 24.9761 65.7696 24.908 65.6385C24.8399 65.5075 24.8059 65.3543 24.8059 65.179C24.8059 64.8488 24.9174 64.5893 25.1403 64.4004C25.365 64.2115 25.6747 64.117 26.0696 64.117C26.2636 64.117 26.4482 64.14 26.6235 64.186C26.8005 64.2319 26.9852 64.2966 27.1775 64.38L26.9222 64.9952C26.7231 64.9135 26.558 64.8565 26.427 64.8242C26.2976 64.7918 26.17 64.7757 26.044 64.7757C25.8943 64.7757 25.7794 64.8105 25.6994 64.8803C25.6194 64.9501 25.5794 65.0412 25.5794 65.1535C25.5794 65.2233 25.5956 65.2845 25.6279 65.3373C25.6603 65.3883 25.7113 65.4385 25.7811 65.4879C25.8526 65.5356 26.0202 65.6224 26.284 65.7483C26.6329 65.9151 26.872 66.0827 27.0013 66.2512C27.1307 66.418 27.1954 66.6231 27.1954 66.8664Z" fill="#242424"/>
<path d="M31.7242 66.0317C31.7242 66.6494 31.571 67.1243 31.2647 67.4561C30.9584 67.788 30.5193 67.9539 29.9474 67.9539C29.3756 67.9539 28.9365 67.788 28.6302 67.4561C28.3238 67.1243 28.1707 66.6477 28.1707 66.0266C28.1707 65.4054 28.3238 64.9314 28.6302 64.6046C28.9382 64.2762 29.379 64.1119 29.9525 64.1119C30.5261 64.1119 30.9643 64.277 31.2673 64.6072C31.5719 64.9373 31.7242 65.4122 31.7242 66.0317ZM29.0003 66.0317C29.0003 66.4486 29.0795 66.7626 29.2377 66.9737C29.396 67.1847 29.6326 67.2902 29.9474 67.2902C30.5788 67.2902 30.8945 66.8707 30.8945 66.0317C30.8945 65.1909 30.5805 64.7706 29.9525 64.7706C29.6377 64.7706 29.4003 64.8769 29.2403 65.0897C29.0803 65.3007 29.0003 65.6147 29.0003 66.0317Z" fill="#242424"/>
<path d="M34.5478 64.7757C34.2499 64.7757 34.0193 64.888 33.8559 65.1126C33.6926 65.3356 33.6109 65.647 33.6109 66.047C33.6109 66.8792 33.9232 67.2953 34.5478 67.2953C34.8099 67.2953 35.1273 67.2298 35.5 67.0987V67.7625C35.1936 67.8901 34.8516 67.9539 34.4737 67.9539C33.9308 67.9539 33.5156 67.7897 33.228 67.4612C32.9403 67.1311 32.7965 66.658 32.7965 66.0419C32.7965 65.6538 32.8671 65.3143 33.0084 65.0233C33.1497 64.7306 33.3522 64.5068 33.616 64.3519C33.8815 64.1953 34.1921 64.117 34.5478 64.117C34.9103 64.117 35.2745 64.2047 35.6404 64.38L35.3851 65.0233C35.2455 64.9569 35.1051 64.899 34.9639 64.8497C34.8226 64.8003 34.6839 64.7757 34.5478 64.7757Z" fill="#242424"/>
<path d="M36.7612 67.9029V64.1706H37.5526V67.9029H36.7612Z" fill="#242424"/>
<path d="M41.2415 67.9029L40.9709 67.0145H39.6103L39.3397 67.9029H38.487L39.8043 64.1553H40.7718L42.0942 67.9029H41.2415ZM40.782 66.3508C40.5319 65.5458 40.3906 65.0905 40.3583 64.985C40.3276 64.8795 40.3055 64.7961 40.2919 64.7348C40.2357 64.9527 40.0749 65.4913 39.8094 66.3508H40.782Z" fill="#242424"/>
<path d="M44.471 67.9029H43.6796V64.8293H42.6661V64.1706H45.4845V64.8293H44.471V67.9029Z" fill="#242424"/>
<path d="M46.5236 67.9029V64.1706H47.315V67.9029H46.5236Z" fill="#242424"/>
<path d="M52.1068 66.0317C52.1068 66.6494 51.9536 67.1243 51.6473 67.4561C51.3409 67.788 50.9018 67.9539 50.33 67.9539C49.7582 67.9539 49.3191 67.788 49.0127 67.4561C48.7064 67.1243 48.5532 66.6477 48.5532 66.0266C48.5532 65.4054 48.7064 64.9314 49.0127 64.6046C49.3208 64.2762 49.7616 64.1119 50.3351 64.1119C50.9086 64.1119 51.3469 64.277 51.6498 64.6072C51.9544 64.9373 52.1068 65.4122 52.1068 66.0317ZM49.3829 66.0317C49.3829 66.4486 49.462 66.7626 49.6203 66.9737C49.7786 67.1847 50.0151 67.2902 50.33 67.2902C50.9614 67.2902 51.2771 66.8707 51.2771 66.0317C51.2771 65.1909 50.9631 64.7706 50.3351 64.7706C50.0202 64.7706 49.7828 64.8769 49.6229 65.0897C49.4629 65.3007 49.3829 65.6147 49.3829 66.0317Z" fill="#242424"/>
<path d="M56.656 67.9029H55.6502L54.0266 65.0794H54.0036C54.036 65.5781 54.0521 65.9338 54.0521 66.1465V67.9029H53.345V64.1706H54.3432L55.9642 66.966H55.9821C55.9566 66.481 55.9438 66.138 55.9438 65.9372V64.1706H56.656V67.9029Z" fill="#242424"/>
<defs>
<clipPath id="clip0_107_4091">
<rect width="28" height="30.1" fill="white" transform="translate(23 8.21698)"/>
</clipPath>
</defs>
</svg>
