<svg width="72" height="83" viewBox="0 0 72 83" fill="none" xmlns="http://www.w3.org/2000/svg">
<path d="M71 1.91699H1V43.75C1 82.083 34.7752 69.1188 35.2739 82.083C35.2739 69.125 71 82.083 71 43.75V1.91699Z" stroke="#242424" stroke-width="2"/>
<path d="M16.568 45.7717C16.568 46.1101 16.4458 46.3767 16.2014 46.5715C15.9587 46.7664 15.6204 46.8638 15.1863 46.8638C14.7864 46.8638 14.4326 46.7886 14.125 46.6382V45.8999C14.3779 46.0127 14.5916 46.0922 14.7659 46.1383C14.9419 46.1844 15.1025 46.2075 15.2478 46.2075C15.4221 46.2075 15.5554 46.1742 15.6477 46.1075C15.7417 46.0409 15.7887 45.9418 15.7887 45.8102C15.7887 45.7367 15.7682 45.6718 15.7272 45.6154C15.6862 45.5573 15.6255 45.5017 15.5452 45.4487C15.4666 45.3958 15.3051 45.3112 15.0607 45.1949C14.8317 45.0873 14.6599 44.9839 14.5454 44.8848C14.4309 44.7856 14.3395 44.6703 14.2711 44.5387C14.2028 44.4071 14.1686 44.2533 14.1686 44.0773C14.1686 43.7457 14.2805 43.4851 14.5044 43.2954C14.73 43.1057 15.041 43.0109 15.4375 43.0109C15.6323 43.0109 15.8177 43.0339 15.9938 43.0801C16.1715 43.1262 16.3569 43.1912 16.55 43.2749L16.2937 43.8927C16.0938 43.8107 15.928 43.7534 15.7964 43.7209C15.6665 43.6885 15.5383 43.6722 15.4119 43.6722C15.2615 43.6722 15.1461 43.7073 15.0658 43.7773C14.9855 43.8474 14.9453 43.9388 14.9453 44.0516C14.9453 44.1217 14.9615 44.1832 14.994 44.2362C15.0265 44.2875 15.0778 44.3379 15.1478 44.3875C15.2196 44.4353 15.3879 44.5225 15.6528 44.6489C16.0032 44.8164 16.2433 44.9847 16.3732 45.1539C16.5031 45.3214 16.568 45.5273 16.568 45.7717Z" fill="#242424"/>
<path d="M20.7354 43.0647V45.4897C20.7354 45.7666 20.673 46.0093 20.5482 46.2178C20.4252 46.4263 20.2466 46.5861 20.0125 46.6971C19.7783 46.8082 19.5015 46.8638 19.1819 46.8638C18.7 46.8638 18.3257 46.7407 18.0591 46.4946C17.7925 46.2468 17.6592 45.9084 17.6592 45.4795V43.0647H18.4513V45.359C18.4513 45.6478 18.5094 45.8597 18.6256 45.9948C18.7418 46.1298 18.9341 46.1973 19.2024 46.1973C19.4622 46.1973 19.6501 46.1298 19.7664 45.9948C19.8843 45.858 19.9432 45.6444 19.9432 45.3539V43.0647H20.7354Z" fill="#242424"/>
<path d="M23.6825 43.6722C23.3834 43.6722 23.1519 43.785 22.9878 44.0106C22.8237 44.2345 22.7417 44.5472 22.7417 44.9489C22.7417 45.7845 23.0553 46.2024 23.6825 46.2024C23.9457 46.2024 24.2644 46.1366 24.6387 46.005V46.6715C24.3311 46.7997 23.9875 46.8638 23.6082 46.8638C23.063 46.8638 22.646 46.6989 22.3572 46.369C22.0684 46.0375 21.924 45.5624 21.924 44.9437C21.924 44.5541 21.9949 44.2131 22.1367 43.9209C22.2786 43.627 22.4819 43.4022 22.7468 43.2467C23.0134 43.0895 23.3253 43.0109 23.6825 43.0109C24.0465 43.0109 24.4122 43.0989 24.7797 43.2749L24.5233 43.9209C24.3832 43.8542 24.2422 43.7961 24.1003 43.7466C23.9585 43.697 23.8192 43.6722 23.6825 43.6722Z" fill="#242424"/>
<path d="M27.4679 43.6722C27.1688 43.6722 26.9373 43.785 26.7732 44.0106C26.6091 44.2345 26.5271 44.5472 26.5271 44.9489C26.5271 45.7845 26.8407 46.2024 27.4679 46.2024C27.7311 46.2024 28.0498 46.1366 28.4241 46.005V46.6715C28.1165 46.7997 27.7729 46.8638 27.3936 46.8638C26.8484 46.8638 26.4314 46.6989 26.1426 46.369C25.8538 46.0375 25.7094 45.5624 25.7094 44.9437C25.7094 44.5541 25.7803 44.2131 25.9221 43.9209C26.064 43.627 26.2673 43.4022 26.5322 43.2467C26.7988 43.0895 27.1107 43.0109 27.4679 43.0109C27.8319 43.0109 28.1976 43.0989 28.5651 43.2749L28.3087 43.9209C28.1686 43.8542 28.0276 43.7961 27.8857 43.7466C27.7439 43.697 27.6046 43.6722 27.4679 43.6722Z" fill="#242424"/>
<path d="M31.8198 46.8125H29.6614V43.0647H31.8198V43.7158H30.4561V44.5387H31.725V45.1898H30.4561V46.1562H31.8198V46.8125Z" fill="#242424"/>
<path d="M35.254 45.7717C35.254 46.1101 35.1318 46.3767 34.8875 46.5715C34.6448 46.7664 34.3064 46.8638 33.8723 46.8638C33.4724 46.8638 33.1187 46.7886 32.811 46.6382V45.8999C33.064 46.0127 33.2776 46.0922 33.4519 46.1383C33.6279 46.1844 33.7886 46.2075 33.9338 46.2075C34.1082 46.2075 34.2415 46.1742 34.3337 46.1075C34.4277 46.0409 34.4747 45.9418 34.4747 45.8102C34.4747 45.7367 34.4542 45.6718 34.4132 45.6154C34.3722 45.5573 34.3115 45.5017 34.2312 45.4487C34.1526 45.3958 33.9911 45.3112 33.7467 45.1949C33.5177 45.0873 33.3459 44.9839 33.2314 44.8848C33.1169 44.7856 33.0255 44.6703 32.9572 44.5387C32.8888 44.4071 32.8546 44.2533 32.8546 44.0773C32.8546 43.7457 32.9666 43.4851 33.1904 43.2954C33.416 43.1057 33.7271 43.0109 34.1235 43.0109C34.3184 43.0109 34.5038 43.0339 34.6798 43.0801C34.8575 43.1262 35.043 43.1912 35.2361 43.2749L34.9797 43.8927C34.7798 43.8107 34.614 43.7534 34.4824 43.7209C34.3525 43.6885 34.2244 43.6722 34.0979 43.6722C33.9475 43.6722 33.8322 43.7073 33.7518 43.7773C33.6715 43.8474 33.6313 43.9388 33.6313 44.0516C33.6313 44.1217 33.6476 44.1832 33.6801 44.2362C33.7125 44.2875 33.7638 44.3379 33.8339 44.3875C33.9056 44.4353 34.074 44.5225 34.3389 44.6489C34.6892 44.8164 34.9293 44.9847 35.0592 45.1539C35.1891 45.3214 35.254 45.5273 35.254 45.7717Z" fill="#242424"/>
<path d="M38.5831 45.7717C38.5831 46.1101 38.4609 46.3767 38.2166 46.5715C37.9739 46.7664 37.6355 46.8638 37.2014 46.8638C36.8015 46.8638 36.4478 46.7886 36.1401 46.6382V45.8999C36.3931 46.0127 36.6067 46.0922 36.781 46.1383C36.957 46.1844 37.1177 46.2075 37.2629 46.2075C37.4373 46.2075 37.5706 46.1742 37.6628 46.1075C37.7568 46.0409 37.8038 45.9418 37.8038 45.8102C37.8038 45.7367 37.7833 45.6718 37.7423 45.6154C37.7013 45.5573 37.6406 45.5017 37.5603 45.4487C37.4817 45.3958 37.3202 45.3112 37.0758 45.1949C36.8468 45.0873 36.675 44.9839 36.5605 44.8848C36.446 44.7856 36.3546 44.6703 36.2863 44.5387C36.2179 44.4071 36.1837 44.2533 36.1837 44.0773C36.1837 43.7457 36.2957 43.4851 36.5195 43.2954C36.7451 43.1057 37.0562 43.0109 37.4526 43.0109C37.6475 43.0109 37.8329 43.0339 38.0089 43.0801C38.1866 43.1262 38.3721 43.1912 38.5652 43.2749L38.3088 43.8927C38.1089 43.8107 37.9431 43.7534 37.8115 43.7209C37.6816 43.6885 37.5535 43.6722 37.427 43.6722C37.2766 43.6722 37.1613 43.7073 37.0809 43.7773C37.0006 43.8474 36.9604 43.9388 36.9604 44.0516C36.9604 44.1217 36.9767 44.1832 37.0092 44.2362C37.0416 44.2875 37.0929 44.3379 37.163 44.3875C37.2347 44.4353 37.4031 44.5225 37.668 44.6489C38.0183 44.8164 38.2584 44.9847 38.3883 45.1539C38.5182 45.3214 38.5831 45.5273 38.5831 45.7717Z" fill="#242424"/>
<path d="M40.4818 46.8125H39.7V43.0647H41.8481V43.7158H40.4818V44.6823H41.7533V45.3308H40.4818V46.8125Z" fill="#242424"/>
<path d="M46.0693 43.0647V45.4897C46.0693 45.7666 46.007 46.0093 45.8822 46.2178C45.7592 46.4263 45.5806 46.5861 45.3464 46.6971C45.1123 46.8082 44.8354 46.8638 44.5159 46.8638C44.0339 46.8638 43.6597 46.7407 43.3931 46.4946C43.1265 46.2468 42.9932 45.9084 42.9932 45.4795V43.0647H43.7853V45.359C43.7853 45.6478 43.8434 45.8597 43.9596 45.9948C44.0758 46.1298 44.2681 46.1973 44.5364 46.1973C44.7961 46.1973 44.9841 46.1298 45.1003 45.9948C45.2183 45.858 45.2772 45.6444 45.2772 45.3539V43.0647H46.0693Z" fill="#242424"/>
<path d="M47.4246 46.8125V43.0647H48.2192V46.1562H49.7394V46.8125H47.4246Z" fill="#242424"/>
<path d="M50.8306 46.8125V43.0647H51.6252V46.1562H53.1454V46.8125H50.8306Z" fill="#242424"/>
<path d="M55.403 44.6079L56.1848 43.0647H57.041L55.7977 45.3539V46.8125H55.0082V45.3795L53.7649 43.0647H54.6262L55.403 44.6079Z" fill="#242424"/>
<path d="M20.8986 50.6722C20.5995 50.6722 20.3679 50.785 20.2039 51.0106C20.0398 51.2345 19.9578 51.5472 19.9578 51.9489C19.9578 52.7845 20.2714 53.2024 20.8986 53.2024C21.1617 53.2024 21.4805 53.1366 21.8547 53.005V53.6715C21.5471 53.7997 21.2036 53.8638 20.8242 53.8638C20.2791 53.8638 19.8621 53.6989 19.5732 53.369C19.2844 53.0375 19.14 52.5624 19.14 51.9437C19.14 51.5541 19.2109 51.2131 19.3528 50.9209C19.4946 50.627 19.698 50.4022 19.9629 50.2467C20.2295 50.0895 20.5414 50.0109 20.8986 50.0109C21.2626 50.0109 21.6283 50.0989 21.9957 50.2749L21.7394 50.9209C21.5992 50.8542 21.4583 50.7961 21.3164 50.7466C21.1746 50.697 21.0353 50.6722 20.8986 50.6722Z" fill="#242424"/>
<path d="M26.4938 51.9335C26.4938 52.5538 26.34 53.0306 26.0323 53.3639C25.7247 53.6971 25.2838 53.8638 24.7096 53.8638C24.1354 53.8638 23.6945 53.6971 23.3868 53.3639C23.0792 53.0306 22.9254 52.5521 22.9254 51.9283C22.9254 51.3046 23.0792 50.8286 23.3868 50.5005C23.6962 50.1707 24.1388 50.0057 24.7147 50.0057C25.2906 50.0057 25.7307 50.1715 26.0349 50.5031C26.3408 50.8346 26.4938 51.3114 26.4938 51.9335ZM23.7585 51.9335C23.7585 52.3522 23.838 52.6675 23.9969 52.8794C24.1559 53.0913 24.3934 53.1973 24.7096 53.1973C25.3436 53.1973 25.6606 52.776 25.6606 51.9335C25.6606 51.0892 25.3453 50.6671 24.7147 50.6671C24.3986 50.6671 24.1602 50.7739 23.9995 50.9875C23.8389 51.1995 23.7585 51.5148 23.7585 51.9335Z" fill="#242424"/>
<path d="M29.2948 53.8125L28.3925 50.8722H28.3694C28.4019 51.4703 28.4181 51.8694 28.4181 52.0693V53.8125H27.708V50.0647H28.7898L29.6768 52.9307H29.6921L30.6329 50.0647H31.7147V53.8125H30.9739V52.0386C30.9739 51.9548 30.9747 51.8583 30.9764 51.7489C30.9799 51.6395 30.9918 51.349 31.0123 50.8773H30.9893L30.0228 53.8125H29.2948Z" fill="#242424"/>
<path d="M33.8928 51.8284H34.1543C34.3987 51.8284 34.5815 51.7805 34.7029 51.6848C34.8242 51.5874 34.8849 51.4464 34.8849 51.2618C34.8849 51.0756 34.8336 50.938 34.7311 50.8491C34.6302 50.7603 34.4713 50.7158 34.2543 50.7158H33.8928V51.8284ZM35.6873 51.2336C35.6873 51.637 35.5608 51.9454 35.3079 52.1591C35.0566 52.3727 34.6986 52.4795 34.2338 52.4795H33.8928V53.8125H33.0981V50.0647H34.2953C34.7499 50.0647 35.0951 50.163 35.3309 50.3595C35.5685 50.5543 35.6873 50.8457 35.6873 51.2336Z" fill="#242424"/>
<path d="M36.8323 53.8125V50.0647H37.627V53.1562H39.1471V53.8125H36.8323Z" fill="#242424"/>
<path d="M42.3967 53.8125H40.2383V50.0647H42.3967V50.7158H41.033V51.5387H42.3019V52.1898H41.033V53.1562H42.3967V53.8125Z" fill="#242424"/>
<path d="M45.0645 53.8125H44.2698V50.7261H43.2521V50.0647H46.0822V50.7261H45.0645V53.8125Z" fill="#242424"/>
<path d="M49.2549 53.8125H47.0964V50.0647H49.2549V50.7158H47.8911V51.5387H49.16V52.1898H47.8911V53.1562H49.2549V53.8125Z" fill="#242424"/>
<path d="M53.5863 51.9027C53.5863 52.5197 53.4103 52.9922 53.0582 53.3203C52.7079 53.6484 52.2012 53.8125 51.5381 53.8125H50.4768V50.0647H51.6534C52.2653 50.0647 52.7404 50.2262 53.0787 50.5492C53.4171 50.8722 53.5863 51.3234 53.5863 51.9027ZM52.7609 51.9232C52.7609 51.1183 52.4054 50.7158 51.6945 50.7158H51.2715V53.1562H51.6124C52.3781 53.1562 52.7609 52.7452 52.7609 51.9232Z" fill="#242424"/>
<path d="M23.3962 59.7717C23.3962 60.1101 23.274 60.3767 23.0297 60.5715C22.787 60.7664 22.4486 60.8638 22.0145 60.8638C21.6146 60.8638 21.2609 60.7886 20.9532 60.6382V59.8999C21.2062 60.0127 21.4198 60.0922 21.5941 60.1383C21.7701 60.1844 21.9308 60.2075 22.076 60.2075C22.2504 60.2075 22.3837 60.1742 22.476 60.1075C22.5699 60.0409 22.6169 59.9418 22.6169 59.8102C22.6169 59.7367 22.5964 59.6718 22.5554 59.6154C22.5144 59.5573 22.4537 59.5017 22.3734 59.4487C22.2948 59.3958 22.1333 59.3112 21.8889 59.1949C21.6599 59.0873 21.4882 58.9839 21.3737 58.8848C21.2592 58.7856 21.1677 58.6703 21.0994 58.5387C21.031 58.4071 20.9968 58.2533 20.9968 58.0773C20.9968 57.7457 21.1088 57.4851 21.3326 57.2954C21.5582 57.1057 21.8693 57.0109 22.2657 57.0109C22.4606 57.0109 22.646 57.0339 22.822 57.0801C22.9998 57.1262 23.1852 57.1912 23.3783 57.2749L23.1219 57.8927C22.922 57.8107 22.7562 57.7534 22.6246 57.7209C22.4948 57.6885 22.3666 57.6722 22.2401 57.6722C22.0897 57.6722 21.9744 57.7073 21.894 57.7773C21.8137 57.8474 21.7736 57.9388 21.7736 58.0516C21.7736 58.1217 21.7898 58.1832 21.8223 58.2362C21.8547 58.2875 21.906 58.3379 21.9761 58.3875C22.0479 58.4353 22.2162 58.5225 22.4811 58.6489C22.8314 58.8164 23.0715 58.9847 23.2014 59.1539C23.3313 59.3214 23.3962 59.5273 23.3962 59.7717Z" fill="#242424"/>
<path d="M25.9589 60.8125H25.1642V57.7261H24.1465V57.0647H26.9766V57.7261H25.9589V60.8125Z" fill="#242424"/>
<path d="M30.2852 60.8125L30.0134 59.9204H28.6471L28.3754 60.8125H27.5192L28.8419 57.0493H29.8135L31.1414 60.8125H30.2852ZM29.8237 59.2539C29.5725 58.4456 29.4307 57.9884 29.3982 57.8824C29.3674 57.7765 29.3452 57.6927 29.3315 57.6312C29.2751 57.85 29.1136 58.3909 28.847 59.2539H29.8237Z" fill="#242424"/>
<path d="M35.3779 60.8125H34.3679L32.7375 57.9773H32.7145C32.7469 58.478 32.7632 58.8352 32.7632 59.0488V60.8125H32.0531V57.0647H33.0554L34.6832 59.8717H34.7012C34.6755 59.3846 34.6627 59.0403 34.6627 58.8386V57.0647H35.3779V60.8125Z" fill="#242424"/>
<path d="M37.5432 60.8125H36.7614V57.0647H38.9095V57.7158H37.5432V58.6823H38.8147V59.3308H37.5432V60.8125Z" fill="#242424"/>
<path d="M43.4819 58.9335C43.4819 59.5538 43.3281 60.0306 43.0205 60.3639C42.7129 60.6971 42.272 60.8638 41.6978 60.8638C41.1235 60.8638 40.6826 60.6971 40.375 60.3639C40.0674 60.0306 39.9136 59.5521 39.9136 58.9283C39.9136 58.3046 40.0674 57.8286 40.375 57.5005C40.6843 57.1707 41.127 57.0057 41.7029 57.0057C42.2788 57.0057 42.7189 57.1715 43.0231 57.5031C43.329 57.8346 43.4819 58.3114 43.4819 58.9335ZM40.7467 58.9335C40.7467 59.3522 40.8262 59.6675 40.9851 59.8794C41.144 60.0913 41.3816 60.1973 41.6978 60.1973C42.3318 60.1973 42.6488 59.776 42.6488 58.9335C42.6488 58.0892 42.3335 57.6671 41.7029 57.6671C41.3867 57.6671 41.1483 57.7739 40.9877 57.9875C40.827 58.1995 40.7467 58.5148 40.7467 58.9335Z" fill="#242424"/>
<path d="M45.4908 58.7284H45.7472C45.9984 58.7284 46.1838 58.6865 46.3035 58.6028C46.4231 58.519 46.4829 58.3875 46.4829 58.208C46.4829 58.0303 46.4214 57.9038 46.2983 57.8286C46.177 57.7534 45.9882 57.7158 45.7318 57.7158H45.4908V58.7284ZM45.4908 59.3744V60.8125H44.6962V57.0647H45.7882C46.2975 57.0647 46.6743 57.1578 46.9187 57.3441C47.1631 57.5287 47.2853 57.8098 47.2853 58.1875C47.2853 58.408 47.2246 58.6045 47.1033 58.7771C46.9819 58.948 46.8102 59.0822 46.588 59.1796C47.152 60.0221 47.5194 60.5664 47.6903 60.8125H46.8085L45.9138 59.3744H45.4908Z" fill="#242424"/>
<path d="M51.709 58.9027C51.709 59.5197 51.533 59.9922 51.1809 60.3203C50.8306 60.6484 50.3239 60.8125 49.6608 60.8125H48.5995V57.0647H49.7761C50.3879 57.0647 50.863 57.2262 51.2014 57.5492C51.5398 57.8722 51.709 58.3234 51.709 58.9027ZM50.8835 58.9232C50.8835 58.1183 50.5281 57.7158 49.8171 57.7158H49.3942V60.1562H49.7351C50.5007 60.1562 50.8835 59.7452 50.8835 58.9232Z" fill="#242424"/>
<path d="M22.5435 64.0647V66.4897C22.5435 66.7666 22.4811 67.0093 22.3563 67.2178C22.2333 67.4263 22.0547 67.5861 21.8206 67.6971C21.5864 67.8082 21.3096 67.8638 20.99 67.8638C20.5081 67.8638 20.1338 67.7407 19.8672 67.4946C19.6006 67.2468 19.4673 66.9084 19.4673 66.4795V64.0647H20.2594V66.359C20.2594 66.6478 20.3175 66.8597 20.4337 66.9948C20.5499 67.1298 20.7422 67.1973 21.0105 67.1973C21.2703 67.1973 21.4583 67.1298 21.5745 66.9948C21.6924 66.858 21.7513 66.6444 21.7513 66.3539V64.0647H22.5435Z" fill="#242424"/>
<path d="M27.2235 67.8125H26.2135L24.5831 64.9773H24.5601C24.5925 65.478 24.6088 65.8352 24.6088 66.0488V67.8125H23.8987V64.0647H24.901L26.5288 66.8717H26.5468C26.5211 66.3846 26.5083 66.0403 26.5083 65.8386V64.0647H27.2235V67.8125Z" fill="#242424"/>
<path d="M28.6069 67.8125V64.0647H29.4016V67.8125H28.6069Z" fill="#242424"/>
<path d="M32.9204 64.0647H33.7228L32.4487 67.8125H31.5823L30.3108 64.0647H31.1132L31.8181 66.2949C31.8574 66.4265 31.8976 66.5803 31.9386 66.7563C31.9813 66.9307 32.0078 67.052 32.0181 67.1204C32.0369 66.9631 32.101 66.688 32.2103 66.2949L32.9204 64.0647Z" fill="#242424"/>
<path d="M36.793 67.8125H34.6345V64.0647H36.793V64.7158H35.4292V65.5387H36.6981V66.1898H35.4292V67.1562H36.793V67.8125Z" fill="#242424"/>
<path d="M38.8096 65.7284H39.0659C39.3171 65.7284 39.5026 65.6865 39.6222 65.6028C39.7418 65.519 39.8016 65.3875 39.8016 65.208C39.8016 65.0303 39.7401 64.9038 39.6171 64.8286C39.4957 64.7534 39.3069 64.7158 39.0505 64.7158H38.8096V65.7284ZM38.8096 66.3744V67.8125H38.0149V64.0647H39.1069C39.6162 64.0647 39.993 64.1578 40.2374 64.3441C40.4818 64.5287 40.604 64.8098 40.604 65.1875C40.604 65.408 40.5433 65.6045 40.422 65.7771C40.3007 65.948 40.1289 66.0822 39.9067 66.1796C40.4707 67.0221 40.8381 67.5664 41.009 67.8125H40.1272L39.2325 66.3744H38.8096Z" fill="#242424"/>
<path d="M44.1305 66.7717C44.1305 67.1101 44.0083 67.3767 43.7639 67.5715C43.5212 67.7664 43.1829 67.8638 42.7488 67.8638C42.3489 67.8638 41.9951 67.7886 41.6875 67.6382V66.8999C41.9404 67.0127 42.1541 67.0922 42.3284 67.1383C42.5044 67.1844 42.665 67.2075 42.8103 67.2075C42.9846 67.2075 43.1179 67.1742 43.2102 67.1075C43.3042 67.0409 43.3512 66.9418 43.3512 66.8102C43.3512 66.7367 43.3307 66.6718 43.2897 66.6154C43.2487 66.5573 43.188 66.5017 43.1077 66.4487C43.0291 66.3958 42.8676 66.3112 42.6232 66.1949C42.3942 66.0873 42.2224 65.9839 42.1079 65.8848C41.9934 65.7856 41.902 65.6703 41.8336 65.5387C41.7653 65.4071 41.7311 65.2533 41.7311 65.0773C41.7311 64.7457 41.843 64.4851 42.0669 64.2954C42.2925 64.1057 42.6035 64.0109 43 64.0109C43.1948 64.0109 43.3802 64.0339 43.5563 64.0801C43.734 64.1262 43.9194 64.1912 44.1125 64.2749L43.8562 64.8927C43.6562 64.8107 43.4905 64.7534 43.3589 64.7209C43.229 64.6885 43.1008 64.6722 42.9744 64.6722C42.824 64.6722 42.7086 64.7073 42.6283 64.7773C42.548 64.8474 42.5078 64.9388 42.5078 65.0516C42.5078 65.1217 42.524 65.1832 42.5565 65.2362C42.589 65.2875 42.6403 65.3379 42.7103 65.3875C42.7821 65.4353 42.9504 65.5225 43.2153 65.6489C43.5657 65.8164 43.8058 65.9847 43.9357 66.1539C44.0656 66.3214 44.1305 66.5273 44.1305 66.7717Z" fill="#242424"/>
<path d="M45.2473 67.8125V64.0647H46.042V67.8125H45.2473Z" fill="#242424"/>
<path d="M48.8687 67.8125H48.074V64.7261H47.0563V64.0647H49.8864V64.7261H48.8687V67.8125Z" fill="#242424"/>
<path d="M52.067 65.6079L52.8489 64.0647H53.7051L52.4618 66.3539V67.8125H51.6722V66.3795L50.429 64.0647H51.2903L52.067 65.6079Z" fill="#242424"/>
<g clip-path="url(#clip0_67_342)">
<path d="M43.6918 19.0408C42.1039 18.99 40.1064 17.4646 37.5966 18.4814V14.16C41.2844 10.4484 44.2039 16.9563 48.7112 16.2954C48.4039 16.9055 47.943 17.7464 45.843 17.2382L46.765 18.3843C45.843 18.6894 44.9723 18.1768 44.0503 17.6683C43.743 18.1768 44.3064 18.6343 44.3064 18.9902C44.1526 18.99 43.8966 19.0408 43.6918 19.0408Z" fill="#242424"/>
<path d="M27.374 18.9392C27.374 18.5833 27.9374 18.1256 27.6301 17.6173C26.7081 18.1766 25.8374 18.6892 24.9155 18.3334L25.8374 17.1872C23.7374 17.6957 23.2766 16.8545 22.9692 16.2444C27.4253 16.9054 30.3448 10.3976 34.0839 14.109V18.4307C31.2667 17.2614 29.0644 19.4985 27.374 18.9392Z" fill="#242424"/>
<path d="M35.8542 12.9307C37.1236 12.9307 38.1527 11.8969 38.1527 10.6216C38.1527 9.34632 37.1236 8.3125 35.8542 8.3125C34.5848 8.3125 33.5557 9.34632 33.5557 10.6216C33.5557 11.8969 34.5848 12.9307 35.8542 12.9307Z" fill="#242424"/>
<path d="M35.8542 36.3125C35.6049 36.3125 35.4026 36.1102 35.4026 35.8609V12.7785C35.4026 12.5292 35.6049 12.3269 35.8542 12.3269C36.1035 12.3269 36.3058 12.5292 36.3058 12.7785V35.8609C36.3058 36.1102 36.1037 36.3125 35.8542 36.3125Z" fill="#242424"/>
<path d="M39.8334 29.2669C39.4791 29.2669 39.2625 28.8591 39.4576 28.5653C39.7778 28.0832 40.1193 27.3685 39.9264 26.7002C39.6372 25.698 38.1995 25.2473 37.3405 24.9779L37.1382 24.914C36.0744 24.5733 35.1718 24.6291 34.2986 24.6824C33.199 24.7499 32.1607 24.8135 31.1324 24.0201C30.6408 23.6409 29.8132 22.824 29.7909 21.6136C29.7656 20.2608 30.7763 19.3637 31.0865 19.1207C31.283 18.967 31.5668 19.002 31.7206 19.1982C31.8744 19.3946 31.8396 19.6785 31.6432 19.8323C31.4815 19.9587 30.676 20.6379 30.6939 21.5969C30.7092 22.4302 31.3209 23.0247 31.6843 23.3049C32.4441 23.8914 33.238 23.8424 34.2435 23.7807C35.1556 23.7247 36.1889 23.6613 37.4141 24.0537L37.6112 24.1158C38.6434 24.4394 40.3708 24.9811 40.7946 26.4493C41.0234 27.2412 40.8213 28.1458 40.2103 29.0648C40.1231 29.1962 39.9797 29.2669 39.8334 29.2669Z" fill="#242424"/>
<path d="M38.5097 32.6273C38.1552 32.6273 37.9386 32.2195 38.1339 31.9257C38.3444 31.6092 38.5697 31.1431 38.4478 30.7204C38.2636 30.0818 37.2917 29.7772 36.7111 29.5952L36.5677 29.55C35.8409 29.317 35.2163 29.3554 34.6127 29.3926C33.8468 29.4401 33.0547 29.4884 32.2892 28.8979C31.9236 28.6159 31.3076 28.0069 31.2909 27.0971C31.2719 26.0821 32.0248 25.4124 32.2558 25.2313C32.4522 25.0775 32.7358 25.1123 32.8898 25.3083C33.0436 25.5047 33.0093 25.7883 32.8128 25.9423C32.7074 26.025 32.1824 26.4678 32.1939 27.0806C32.2038 27.6131 32.6035 27.9999 32.841 28.183C33.3376 28.5662 33.8493 28.5348 34.5574 28.4912C35.2125 28.451 35.9549 28.4056 36.8432 28.6899L36.9812 28.7335C37.7352 28.9699 38.9967 29.3653 39.3156 30.4702C39.4881 31.0677 39.3397 31.7442 38.8863 32.4261C38.7992 32.5566 38.6558 32.6273 38.5097 32.6273Z" fill="#242424"/>
<path d="M37.4482 35.7029C37.0939 35.7029 36.8773 35.295 37.0724 35.0013C37.1725 34.8507 37.3303 34.5623 37.2619 34.3248C37.1619 33.9779 36.5639 33.7905 36.2065 33.6785L36.1101 33.648C35.6537 33.5017 35.2524 33.5265 34.8647 33.5502C34.3271 33.5834 33.7714 33.6173 33.2172 33.1899C32.76 32.8365 32.5032 32.3695 32.4942 31.8748C32.4804 31.1296 33.0262 30.643 33.194 30.5116C33.3904 30.3578 33.6741 30.3921 33.8281 30.5883C33.9818 30.7846 33.9475 31.0684 33.7513 31.2224C33.691 31.2696 33.3911 31.522 33.3972 31.8578C33.4026 32.1487 33.6325 32.369 33.7689 32.4745C34.0417 32.6849 34.3135 32.6793 34.8094 32.6484C35.2364 32.6224 35.7675 32.5897 36.3855 32.7875L36.4768 32.8164C36.9724 32.9717 37.8951 33.2612 38.1294 34.0739C38.2568 34.5153 38.1516 35.0087 37.8244 35.5008C37.7377 35.6322 37.5943 35.7029 37.4482 35.7029Z" fill="#242424"/>
<path d="M40.0797 23.9652C39.5882 23.9652 39.4637 23.2566 39.9255 23.0891C40.6352 22.8314 41.1011 22.2328 41.1126 21.5644C41.1234 20.9301 40.7104 20.3329 40.0606 20.0429C39.8327 19.9413 39.7306 19.6742 39.832 19.4464C39.9339 19.2187 40.201 19.1162 40.4286 19.2178C41.4097 19.6557 42.0327 20.5826 42.0156 21.5796C41.9975 22.6257 41.2982 23.5513 40.2337 23.9379C40.1832 23.9564 40.131 23.9652 40.0797 23.9652Z" fill="#242424"/>
<path d="M34.3849 35.9591C34.1232 35.9591 33.8665 35.8677 33.6632 35.699C33.4288 35.5046 33.2852 35.2239 33.269 34.929C33.2378 34.3541 33.6906 33.8399 34.2781 33.7828C34.5276 33.7598 34.7471 33.9404 34.7713 34.1886C34.7952 34.437 34.6137 34.6576 34.3655 34.6817C34.0896 34.7086 34.1442 35.0902 34.4131 35.0539C34.6807 35.0175 34.9253 35.2343 34.9239 35.5039C34.9226 35.8083 34.6593 35.9591 34.3849 35.9591Z" fill="#242424"/>
</g>
<defs>
<clipPath id="clip0_67_342">
<rect width="28" height="28" fill="white" transform="translate(21.8402 8.3125)"/>
</clipPath>
</defs>
</svg>
