<svg width="80" height="80" viewBox="0 0 80 80" fill="none" xmlns="http://www.w3.org/2000/svg">
<rect width="80" height="80" rx="40" fill="#FBFBFB"/>
<path d="M56.0606 41.8591C56.4007 41.3359 56.7495 40.7953 57.0372 40.2286C58.3276 37.7088 58.563 34.9797 57.7173 32.6604C58.6502 32.0762 59.2257 30.9602 59.1298 29.8528C59.0252 28.7106 58.2056 27.673 57.1244 27.2981C56.9587 26.5396 56.4704 25.8507 55.7991 25.4671C55.2236 25.1358 54.5348 25.0311 53.8809 25.1532C53.7937 24.3511 53.3752 23.6274 52.7125 23.1565C51.9714 22.6334 50.9948 22.5113 50.1491 22.7903C49.6957 22.1102 49.0505 21.744 48.2832 21.7179C47.6031 21.6917 46.9404 21.9359 46.4347 22.3718C45.9377 21.5086 44.9176 20.9157 43.9236 21.0116C42.7988 21.125 41.7526 21.9184 41.2032 23.0781C40.5929 24.3772 40.6975 25.7723 40.8981 26.7139C41.1422 27.8474 41.6043 28.9024 42.0664 29.9226C41.9182 32.7127 41.9793 35.9562 43.4441 38.9382C43.5574 39.1736 43.6882 39.4177 43.8103 39.6531C44.377 40.7605 44.9176 41.798 44.9438 42.9315C44.9786 44.5097 44.037 45.8437 43.043 47.2562C42.3106 48.3025 41.5433 49.3837 41.1509 50.6131C40.4011 52.976 41.2207 55.7661 43.1302 57.4053C44.3421 58.4429 45.9552 58.9922 47.5769 58.9922C48.4488 58.9922 49.3295 58.8352 50.1404 58.5039C52.4073 57.5884 54.1512 55.3999 54.5784 52.9411C54.8138 51.5983 54.683 50.2207 54.5522 48.8954C54.3953 47.2737 54.2471 45.7391 54.7266 44.2917C55.0318 43.446 55.5288 42.67 56.0606 41.8591ZM55.3631 26.2169C55.8427 26.496 56.174 26.993 56.2699 27.551C55.3108 28.4229 54.6569 29.6348 54.4738 30.8817C53.7152 30.5242 52.9479 30.2103 52.1545 29.94C52.0498 28.5362 52.6427 27.054 53.6716 26.121C54.2122 25.8943 54.8487 25.9292 55.3631 26.2169ZM52.2068 23.8715C52.7474 24.2464 53.0351 24.8916 53.0002 25.5543C51.9016 26.5919 51.2651 28.109 51.2738 29.6348C50.7245 29.4605 50.1665 29.321 49.6085 29.1815C49.4341 28.3531 49.4167 27.4115 49.53 26.3216C49.6782 25.2753 49.9311 24.4121 50.2711 23.671C50.9076 23.4181 51.6575 23.4791 52.2068 23.8715ZM48.2483 22.5898C48.7715 22.6072 49.1638 22.8775 49.469 23.3745C49.1028 24.1767 48.8325 25.1009 48.6755 26.2257C48.5622 27.2632 48.5709 28.17 48.7017 28.9896C47.9867 28.8501 47.263 28.7455 46.5394 28.667C46.4434 27.891 46.4086 27.1063 46.3824 26.339L46.3737 26.1385C46.3563 25.3538 46.3824 24.3423 46.6789 23.4181C47.0102 22.895 47.6205 22.5724 48.2483 22.5898ZM44.595 39.2521C44.4729 39.0166 44.3509 38.7812 44.2375 38.5458C44.0021 38.0575 43.8103 37.5605 43.6446 37.0635C44.4642 37.421 45.4407 37.6739 46.4086 37.6739C46.5742 37.6739 46.7486 37.6652 46.9143 37.6477C46.3563 38.4586 46.0249 39.47 46.0249 40.5774C46.0249 42.016 46.583 43.3064 47.4636 44.1784C47.1846 44.6143 46.8532 45.0328 46.4434 45.3642C45.8505 45.8524 45.1879 46.2622 44.5514 46.6546L44.4816 46.6982C45.2402 45.5473 45.8593 44.3179 45.8244 42.8966C45.7982 41.5801 45.1879 40.403 44.595 39.2521ZM46.8968 40.5948C46.8968 38.4673 48.3442 36.7409 50.1229 36.7409C51.8929 36.7409 53.3403 38.4673 53.3403 40.5948C53.3403 42.731 51.8929 44.4661 50.1229 44.4661C48.3442 44.4661 46.8968 42.7223 46.8968 40.5948ZM53.9157 44.0301C53.3752 45.6519 53.5408 47.3521 53.6978 48.9913C53.8198 50.2643 53.9506 51.5722 53.7326 52.8016C53.349 54.9726 51.8232 56.8996 49.8265 57.7017C47.7949 58.5213 45.3361 58.1377 43.7056 56.7514C42.049 55.3301 41.3428 52.9237 41.988 50.8834C42.1711 50.3079 42.4588 49.7586 42.7814 49.218H42.7901C43.3133 48.5379 44.0282 48.0497 44.7083 47.605L45.0135 47.4132C45.6762 47.0034 46.3563 46.5761 47.0015 46.053C47.4461 45.6781 47.8472 45.2334 48.1611 44.7538C48.7453 45.12 49.4167 45.338 50.1229 45.338C52.3812 45.338 54.2122 43.2105 54.2122 40.5948C54.2122 37.9878 52.3812 35.869 50.1229 35.869C49.4167 35.869 48.7453 36.0783 48.1611 36.4445C48.1262 36.4532 48.0914 36.4532 48.0652 36.4706C46.5742 37.1856 44.5863 36.6973 43.3656 35.9475C43.3482 35.9388 43.3307 35.9388 43.322 35.9301C42.8424 33.8985 42.8424 31.8408 42.9558 29.8615C42.9558 29.7918 42.9471 29.722 42.9209 29.661C42.4675 28.6583 41.9967 27.612 41.7613 26.5396C41.5869 25.7287 41.491 24.5342 41.9967 23.453C42.4065 22.5811 43.1999 21.962 44.0108 21.8835C44.0544 21.8835 44.098 21.8748 44.1416 21.8748C44.8914 21.8748 45.6849 22.5026 45.8331 23.2176C45.5105 24.2464 45.4843 25.3189 45.5018 26.1646L45.5105 26.3739C45.5367 27.0976 45.5803 27.8387 45.6587 28.5886C45.1094 28.5537 44.5514 28.5275 44.0021 28.5275C43.7405 28.5275 43.5138 28.7106 43.5138 28.9635C43.5138 29.2076 43.7056 29.3994 43.9498 29.3994C44.6647 29.3994 45.371 29.4343 46.086 29.4953C46.1034 29.4953 46.1208 29.5041 46.147 29.5041H46.1819C49.3556 29.7918 52.4335 30.7247 55.241 32.2332C55.3108 32.268 55.3806 32.2855 55.4503 32.2855C55.6073 32.2855 55.7555 32.207 55.834 32.0588C55.9473 31.8495 55.8688 31.5792 55.6596 31.4659C55.5462 31.4048 55.4329 31.3525 55.3282 31.3002C55.4154 30.1231 56.0083 28.9548 56.9238 28.1526C57.6475 28.4403 58.2056 29.1553 58.2753 29.9313C58.3538 30.7945 57.8132 31.71 57.011 32.0588C56.7931 32.1547 56.6884 32.4075 56.7843 32.6342C57.6998 34.7879 57.5167 37.4123 56.2786 39.8362C56.0083 40.3681 55.6683 40.8912 55.3457 41.3882C54.7964 42.2078 54.2383 43.0623 53.9157 44.0301Z" fill="#242424"/>
<path d="M52.8346 40.5948C52.8346 38.8684 51.6226 37.4646 50.1229 37.4646C48.6232 37.4646 47.4113 38.8684 47.4113 40.5948C47.4113 42.3212 48.6232 43.7337 50.1229 43.7337C51.6226 43.7337 52.8346 42.3212 52.8346 40.5948ZM50.1229 42.8617C49.1115 42.8617 48.2832 41.8416 48.2832 40.5948C48.2832 39.3479 49.1115 38.3365 50.1229 38.3365C51.1343 38.3365 51.9627 39.3479 51.9627 40.5948C51.9627 41.8416 51.1343 42.8617 50.1229 42.8617Z" fill="#242424"/>
<path d="M57.9614 46.8117C57.3162 46.2973 56.6623 45.8177 56.0171 45.312C56.6012 46.4978 57.2552 47.64 57.9789 48.7386C58.0225 48.2765 58.2579 47.8144 58.3625 47.361C59.06 47.8318 59.6878 48.2504 60.3941 48.7212C59.6704 47.6662 58.9554 46.6024 58.2317 45.5474C58.1445 45.9572 58.0486 46.3845 57.9614 46.8117Z" fill="#242424"/>
<path d="M63.5504 44.1784C62.3907 43.6291 61.2311 43.0798 60.0802 42.5305C60.2197 42.9403 60.3504 43.3588 60.49 43.7686C59.6791 43.6553 58.8682 43.5681 58.0573 43.4547C59.1559 44.1784 60.2981 44.8411 61.4839 45.4165C61.2834 44.9893 61.2572 44.4749 61.1177 44.0302C61.9548 44.0912 62.7046 44.1348 63.5504 44.1784Z" fill="#242424"/>
<path d="M58.005 41.4318C59.3216 41.458 60.6382 41.4057 61.946 41.2662C61.5537 41.0133 61.2572 40.5861 60.8998 40.2896C61.6409 39.8798 62.3035 39.5223 63.0447 39.1125C61.7717 39.2608 60.4987 39.4177 59.2257 39.5659C59.5657 39.8362 59.8971 40.124 60.2371 40.3943C59.4873 40.7343 58.7549 41.1005 58.005 41.4318Z" fill="#242424"/>
<path d="M38.788 23.0781C38.2387 21.9185 37.1924 21.125 36.0677 21.0117C35.0737 20.907 34.0536 21.5174 33.5566 22.3719C33.0509 21.9359 32.3882 21.7005 31.7168 21.7179C30.9408 21.7441 30.3043 22.1103 29.8509 22.7904C28.9965 22.5114 28.0286 22.6334 27.2875 23.1566C26.6249 23.6187 26.2063 24.3511 26.1191 25.1533C25.4739 25.0312 24.7764 25.1445 24.2009 25.4672C23.5296 25.8508 23.0413 26.5396 22.8756 27.2982C21.7945 27.6731 20.9661 28.7107 20.8702 29.8529C20.7743 30.9602 21.3498 32.0763 22.2827 32.6604C21.4283 34.9797 21.6724 37.7088 22.9628 40.2286C23.2505 40.7954 23.608 41.336 23.9394 41.8591C24.4625 42.67 24.9682 43.446 25.2559 44.3092C25.7355 45.7566 25.5873 47.2911 25.4303 48.9129C25.2995 50.2382 25.1688 51.6158 25.4042 52.9586C25.8314 55.4174 27.5752 57.6059 29.8422 58.5214C30.6531 58.8527 31.5337 59.0097 32.4056 59.0097C34.0274 59.0097 35.6404 58.4603 36.8524 57.4228C38.7706 55.7836 39.5815 52.9935 38.8316 50.6306C38.4393 49.4012 37.6807 48.32 36.9396 47.2737C35.9456 45.8612 35.0039 44.5185 35.0388 42.9403C35.065 41.8068 35.6056 40.7605 36.1723 39.6532C36.2944 39.4178 36.4164 39.1736 36.5385 38.9382C38.0033 35.9563 38.0644 32.7127 37.9161 29.9226C38.3782 28.9025 38.8491 27.8475 39.0845 26.714C39.2938 25.7723 39.4071 24.3773 38.788 23.0781ZM31.7517 22.5898C32.362 22.5637 32.9811 22.9037 33.3124 23.4182C33.6089 24.3511 33.635 25.3625 33.6176 26.1298L33.6089 26.3303C33.5914 27.0976 33.5566 27.8824 33.4607 28.6671C32.737 28.7455 32.0133 28.8502 31.2983 28.9897C31.4291 28.1614 31.4378 27.2546 31.3245 26.2083C31.1675 25.1009 30.8972 24.1767 30.531 23.3746C30.8362 22.8689 31.2373 22.6073 31.7517 22.5898ZM27.7932 23.8716C28.3425 23.4879 29.1011 23.4269 29.7201 23.6797C30.0689 24.4121 30.313 25.2753 30.4613 26.3129C30.5833 27.4115 30.5572 28.3532 30.3915 29.1902C29.8335 29.321 29.2755 29.4692 28.7262 29.6436C28.7349 28.1178 28.0984 26.6006 26.9998 25.5631C26.9562 24.883 27.2439 24.2465 27.7932 23.8716ZM24.6369 26.217C24.9246 26.0513 25.2559 25.9641 25.596 25.9641C25.8489 25.9641 26.093 26.0165 26.3197 26.1124C27.3485 27.0453 27.9414 28.5276 27.8368 29.9313C27.0521 30.2104 26.2761 30.5242 25.5175 30.873C25.3344 29.6262 24.6805 28.4142 23.7214 27.5423C23.826 27.0017 24.1573 26.496 24.6369 26.217ZM35.7625 38.5546C35.6492 38.79 35.5271 39.0254 35.405 39.2521C34.8121 40.3943 34.2018 41.5801 34.1756 42.9141C34.1407 44.3354 34.7598 45.5647 35.5184 46.7157L35.4486 46.6721C34.8121 46.2797 34.1582 45.8699 33.5653 45.3816C33.1555 45.0416 32.8242 44.6318 32.5451 44.1958C33.4258 43.3239 33.9838 42.0335 33.9838 40.5948C33.9838 39.4875 33.6525 38.4674 33.0944 37.6652C33.2601 37.6827 33.4258 37.6914 33.6002 37.6914C34.5767 37.6914 35.5532 37.4472 36.3641 37.081C36.1897 37.5693 35.9979 38.0663 35.7625 38.5546ZM33.1032 40.5948C33.1032 42.731 31.6558 44.4661 29.8771 44.4661C28.1071 44.4661 26.6597 42.731 26.6597 40.5948C26.6597 38.4674 28.1071 36.741 29.8771 36.741C31.6558 36.741 33.1032 38.4674 33.1032 40.5948ZM38.2387 26.5396C38.012 27.6208 37.5412 28.6584 37.0791 29.6611C37.0529 29.7221 37.0355 29.7918 37.0442 29.8616C37.1488 31.8408 37.1488 33.8986 36.678 35.9301C36.6606 35.9388 36.6431 35.9388 36.6344 35.9475C35.4137 36.6974 33.4258 37.1769 31.9348 36.4707C31.8999 36.4533 31.8738 36.4533 31.8389 36.4445C31.2547 36.0783 30.5921 35.8691 29.8771 35.8691C27.6188 35.8691 25.7878 37.9878 25.7878 40.5948C25.7878 43.2106 27.6188 45.3381 29.8771 45.3381C30.5833 45.3381 31.2547 45.1288 31.8389 44.7539C32.1615 45.2334 32.5539 45.6781 32.9985 46.053C33.635 46.5762 34.3238 47.0034 34.9778 47.4132L35.2742 47.5963C35.963 48.041 36.678 48.538 37.2012 49.2181C37.5325 49.7587 37.8115 50.308 37.9946 50.8834C38.6398 52.915 37.9336 55.3302 36.2769 56.7514C34.6465 58.1465 32.1877 58.5301 30.1561 57.7018C28.1594 56.8996 26.6336 54.9727 26.2499 52.8016C26.032 51.5722 26.1627 50.2644 26.2848 48.9914C26.4418 47.3522 26.6074 45.6519 26.0668 44.0302C25.7442 43.0624 25.1862 42.2079 24.6543 41.3796C24.3317 40.8739 23.9917 40.3594 23.7214 39.8276C22.4833 37.4036 22.3002 34.7792 23.2157 32.6256C23.3116 32.4076 23.207 32.146 22.989 32.0501C22.1868 31.7013 21.6462 30.7858 21.7247 29.9226C21.7945 29.1466 22.3525 28.4317 23.0762 28.1439C23.9917 28.9461 24.5846 30.1144 24.6718 31.2915C24.5584 31.3526 24.4451 31.3962 24.3404 31.4572C24.1312 31.5705 24.0527 31.8321 24.1661 32.0501C24.2445 32.1983 24.3928 32.2768 24.5497 32.2768C24.6195 32.2768 24.6892 32.2594 24.759 32.2245C27.5665 30.7073 30.6705 29.7918 33.8443 29.4954H33.853H33.8705C34.5767 29.4344 35.283 29.3908 35.9979 29.3908C36.0154 29.3908 36.0241 29.382 36.0502 29.3908C36.2944 29.3908 36.4862 29.1989 36.4862 28.9548C36.4862 28.6932 36.2595 28.5188 35.9979 28.5188C35.4486 28.5188 34.8906 28.545 34.3413 28.5799C34.4198 27.83 34.4634 27.0802 34.4895 26.3565L34.4982 26.1472C34.5157 25.3189 34.4808 24.2465 34.1669 23.2089C34.3238 22.4503 35.2045 21.7877 35.9892 21.8662C36.8001 21.9446 37.5935 22.5637 38.0033 23.4356C38.509 24.5255 38.4131 25.72 38.2387 26.5396Z" fill="#242424"/>
<path d="M27.1654 40.5948C27.1654 42.3212 28.3774 43.7337 29.8771 43.7337C31.3681 43.7337 32.5887 42.3212 32.5887 40.5948C32.5887 38.8684 31.3768 37.4646 29.8771 37.4646C28.3861 37.4646 27.1654 38.8684 27.1654 40.5948ZM29.8771 38.3365C30.8885 38.3365 31.7168 39.3479 31.7168 40.5948C31.7168 41.8416 30.8885 42.8617 29.8771 42.8617C28.8657 42.8617 28.0373 41.8416 28.0373 40.5948C28.0373 39.3479 28.8657 38.3365 29.8771 38.3365Z" fill="#242424"/>
<path d="M21.7683 45.5299C21.0446 46.5849 20.3296 47.6486 19.606 48.7036C20.3035 48.2328 20.9313 47.8143 21.6375 47.3434C21.7421 47.7968 21.9776 48.2589 22.0212 48.7211C22.7448 47.6224 23.3988 46.4802 23.983 45.2944C23.3377 45.8089 22.6838 46.2884 22.0386 46.7941C21.9514 46.3843 21.8555 45.9571 21.7683 45.5299Z" fill="#242424"/>
<path d="M21.9514 43.4633C21.1405 43.5766 20.3296 43.6638 19.51 43.7772C19.6496 43.3674 19.7803 42.9489 19.9198 42.5391C18.7602 43.0884 17.6006 43.6377 16.4496 44.187C17.2954 44.1347 18.0452 44.0911 18.891 44.0388C18.7515 44.4834 18.7253 44.9979 18.5248 45.4251C19.7019 44.8496 20.8528 44.187 21.9514 43.4633Z" fill="#242424"/>
<path d="M18.054 41.2662C19.3618 41.4058 20.6784 41.4581 21.995 41.4319C21.2452 41.1006 20.5128 40.7344 19.7629 40.403C20.103 40.1328 20.4343 39.845 20.7743 39.5747C19.5013 39.4265 18.2283 39.2696 16.9554 39.1213C17.6965 39.5311 18.3591 39.8886 19.1003 40.2984C18.7428 40.5949 18.4463 41.0134 18.054 41.2662Z" fill="#242424"/>
</svg>
