<svg width="80" height="80" viewBox="0 0 80 80" fill="none" xmlns="http://www.w3.org/2000/svg">
<rect width="80" height="80" rx="40" fill="#FBFBFB"/>
<path d="M31.7814 36.1216C31.8912 35.8519 31.7617 35.5442 31.492 35.4343C31.2223 35.3247 30.9146 35.4539 30.8047 35.7238L30.6317 36.1484C29.9347 37.8593 30.0013 39.7229 30.8193 41.3961C30.9108 41.5832 31.0983 41.692 31.2934 41.692C31.3711 41.692 31.4501 41.6747 31.5247 41.6382C31.7863 41.5103 31.8947 41.1945 31.7668 40.9329C31.0825 39.5331 31.0263 37.9753 31.6084 36.5463L31.7814 36.1216Z" fill="#242424"/>
<path d="M23.9079 48.566C24.7846 50.758 26.8765 52.1745 29.2374 52.1749L30.3677 52.1751H30.3684C31.1979 52.1751 32.0176 52.042 32.8045 51.7797L34.0889 51.3516C34.7683 51.1251 35.4759 51.0103 36.192 51.0103C36.9082 51.0103 37.6158 51.1251 38.2952 51.3516L39.5796 51.7797C40.3615 52.0403 41.1756 52.1725 41.9979 52.1725H42.0157L45.0674 52.1755C46.1906 52.1729 47.2766 51.8209 48.2082 51.1574L48.2339 51.139C48.4173 51.0084 48.6404 50.9585 48.862 50.9985C49.0835 51.0384 49.2751 51.1631 49.4008 51.3487C49.7483 51.8666 50.3278 52.1757 50.951 52.1757H50.9521C51.0966 52.1756 52.1462 52.1755 53.2507 52.1754L53.6652 52.1753C55.2403 52.1751 56.5217 50.8935 56.5217 49.3183V48.0602C56.5217 47.1871 55.8402 46.4463 54.97 46.374L49.6692 45.9323C49.3043 45.9018 48.9447 45.8229 48.6006 45.6978L48.4784 45.6533C44.8431 44.3314 41.6663 42.0188 39.2915 38.9656C39.1559 38.7912 39.0979 38.5662 39.1323 38.3481L41.405 23.9561C41.4823 23.4665 41.342 22.9697 41.02 22.5929C40.6981 22.2161 40.2291 22 39.7335 22H28.4074C27.9453 22 27.4979 22.1922 27.1798 22.5275C26.8617 22.8627 26.6932 23.3196 26.7175 23.781L26.898 27.2144C26.9133 27.5053 27.161 27.7302 27.4522 27.7133C27.7431 27.6981 27.9665 27.4499 27.9512 27.159L27.7707 23.7257C27.7614 23.5493 27.8233 23.3815 27.9448 23.2534C28.0665 23.1253 28.2307 23.0547 28.4074 23.0547H39.7335C39.923 23.0547 40.0951 23.134 40.2182 23.2781C40.3412 23.4221 40.3928 23.6045 40.3632 23.7916L38.0907 38.1836C38.011 38.6887 38.1453 39.2097 38.4592 39.6132C40.956 42.8234 44.296 45.2548 48.118 46.6446L48.2402 46.6891C48.6723 46.8461 49.1236 46.9452 49.5818 46.9834L54.8827 47.4252C55.2104 47.4524 55.4671 47.7314 55.4671 48.0604V49.3185C55.4671 50.3121 54.6588 51.1207 53.6651 51.1208L53.2508 51.1209C52.1461 51.1209 51.0963 51.1211 50.9517 51.1211C50.9515 51.1211 50.9514 51.1211 50.9513 51.1211C50.6801 51.1211 50.428 50.9866 50.2748 50.7583C49.988 50.3348 49.5527 50.0514 49.0493 49.9606C48.5461 49.8698 48.039 49.9833 47.6222 50.2801L47.5964 50.2985C46.8438 50.8344 45.9686 51.1188 45.0669 51.1209L42.0152 51.1178C41.2977 51.1207 40.5923 51.0056 39.9132 50.7792L38.6288 50.3511C37.8418 50.0887 37.022 49.9557 36.1922 49.9557C35.3624 49.9557 34.5426 50.0887 33.7555 50.3511L32.4711 50.7792C31.7919 51.0057 31.0845 51.1205 30.3685 51.1205C30.3684 51.1205 30.3681 51.1205 30.3679 51.1205L29.2376 51.1204C27.3104 51.12 25.6028 49.9637 24.8874 48.1748L24.8526 48.0879C24.3015 46.7098 24.4723 45.1368 25.3097 43.8802L25.4045 43.738C27.4478 40.6719 28.4666 36.9569 28.2731 33.2774L28.0808 29.6201C28.0654 29.3292 27.8173 29.1032 27.5264 29.1212C27.2356 29.1364 27.0122 29.3846 27.0275 29.6755L27.2198 33.3327C27.4015 36.787 26.4451 40.2747 24.5268 43.1533L24.432 43.2954C23.4021 44.841 23.1932 46.7791 23.8732 48.4795L23.9079 48.566Z" fill="#242424"/>
<path d="M57.8205 54.3863C57.6184 53.9819 57.2709 53.6806 56.8421 53.5376C56.4132 53.3947 55.9544 53.4273 55.5501 53.6295L54.2042 54.3025C53.7943 54.5074 53.3354 54.6157 52.8772 54.6157H41.9316L41.6436 54.3853C39.9576 53.0364 37.7617 52.4144 35.6184 52.6772C34.4907 52.8158 33.4249 53.1824 32.4507 53.767L31.0361 54.6157H28.515C27.5207 54.6157 26.5977 54.1218 26.0461 53.2944L25.0997 51.8747C24.849 51.4986 24.4668 51.2426 24.0235 51.154C23.5803 51.0654 23.1291 51.1547 22.753 51.4054C21.9767 51.9229 21.7661 52.9756 22.2837 53.752L23.2302 55.1717C24.4108 56.9428 26.3865 58.0001 28.515 58.0001H47.4242C47.7155 58.0001 47.9516 57.764 47.9516 57.4727C47.9516 57.1814 47.7155 56.9454 47.4242 56.9454H28.515C26.7399 56.9454 25.0923 56.0636 24.1077 54.5867L23.1612 53.167C22.9662 52.8745 23.0455 52.4779 23.338 52.283C23.4797 52.1885 23.6497 52.155 23.8167 52.1882C23.9837 52.2217 24.1276 52.3181 24.2221 52.4597L25.1685 53.8794C25.9161 55.0008 27.1671 55.6704 28.5149 55.6704H52.8773C53.4983 55.6704 54.1203 55.5236 54.6759 55.2458L56.0219 54.5728C56.1741 54.4967 56.3469 54.4844 56.5086 54.5382C56.6701 54.5921 56.801 54.7057 56.8771 54.858C56.9533 55.0102 56.9656 55.1831 56.9117 55.3447C56.8579 55.5062 56.7444 55.6371 56.5921 55.7132L55.2462 56.3862C54.5144 56.752 53.6953 56.9454 52.8773 56.9454H49.8852C49.594 56.9454 49.3578 57.1814 49.3578 57.4727C49.3578 57.764 49.594 58.0001 49.8852 58.0001H52.8773C53.8581 58.0001 54.8403 57.7682 55.7178 57.3295L57.0637 56.6566C57.468 56.4545 57.7693 56.1071 57.9123 55.6782C58.0552 55.2494 58.0227 54.7906 57.8205 54.3863ZM35.7471 53.724C37.2603 53.538 38.8034 53.8601 40.1149 54.6157H33.0889C33.9098 54.1402 34.8034 53.84 35.7471 53.724Z" fill="#242424"/>
<path d="M45.2412 35.674H45.8787V39.4177C45.8787 40.0297 46.3765 40.5275 46.9884 40.5275H49.3182C49.9301 40.5275 50.4279 40.0297 50.4279 39.4177V35.674H51.0654C51.3774 35.674 51.658 35.5006 51.7975 35.2215C51.9371 34.9423 51.9074 34.6139 51.7203 34.3643L48.8081 30.4814C48.652 30.2734 48.4134 30.1541 48.1533 30.1541C47.8932 30.1541 47.6545 30.2734 47.4984 30.4814L44.5863 34.3643C44.399 34.614 44.3694 34.9424 44.509 35.2215C44.6486 35.5006 44.9291 35.674 45.2412 35.674ZM48.1533 31.3661L50.5931 34.6193H50.1918C49.7405 34.6193 49.3732 34.9866 49.3732 35.4379V39.4177C49.3732 39.4481 49.3485 39.4728 49.3182 39.4728H46.9884C46.9581 39.4728 46.9334 39.448 46.9334 39.4177V35.4379C46.9334 34.9866 46.5662 34.6193 46.1148 34.6193H45.7135L48.1533 31.3661Z" fill="#242424"/>
</svg>
