<svg width="80" height="80" viewBox="0 0 80 80" fill="none" xmlns="http://www.w3.org/2000/svg">
<rect width="80" height="80" rx="40" fill="#FBFBFB"/>
<path d="M58.8242 41.8087H57.0669C54.0354 41.8087 51.0521 40.9958 48.4396 39.4576L43.7133 36.6748C41.3776 35.2996 39.4675 33.309 38.1895 30.9186L37.048 28.7829C36.5285 27.8111 35.3303 27.3948 34.32 27.8352L32.8762 28.4646C32.0998 28.803 31.5981 29.569 31.5981 30.4159V31.5334C31.5981 31.9754 31.3368 32.3759 30.9323 32.554C29.1336 33.3453 27.074 32.9589 25.6846 31.5695C25.3408 31.2256 24.8836 31.0363 24.3974 31.0363C23.3935 31.0363 22.5769 31.853 22.5769 32.8567V33.8069C22.5769 34.6078 22.265 35.3608 21.6987 35.927C20.8889 36.7368 20.4429 37.8134 20.4429 38.9585V43.7791L18.1031 47.4015C18.1 47.4063 18.0976 47.4114 18.0946 47.4162C18.0872 47.4284 18.08 47.4404 18.0734 47.453C18.0695 47.4604 18.0662 47.468 18.0626 47.4754C18.0571 47.4869 18.0518 47.4983 18.047 47.5101C18.0433 47.5191 18.0402 47.5283 18.037 47.5374C18.0333 47.5479 18.0296 47.5583 18.0265 47.569C18.0233 47.5797 18.0208 47.5904 18.0182 47.6013C18.016 47.6107 18.0136 47.6202 18.0118 47.6298C18.0094 47.6422 18.0077 47.6545 18.0061 47.6669C18.005 47.6753 18.0037 47.6837 18.0029 47.6922C18.0016 47.706 18.0012 47.7199 18.0009 47.7338C18.0008 47.7395 18 47.7453 18 47.7512C18 47.7537 18.0002 47.7562 18.0002 47.7588C18.0002 47.7626 18.0003 47.7665 18.0004 47.7704C18.0108 50.2918 20.0648 52.3398 22.5885 52.3398H54.6447C58.7004 52.3398 62 49.0403 62 44.9845C62 43.2334 60.5753 41.8087 58.8242 41.8087ZM32.8871 31.5334V30.4158C32.8871 30.0818 33.085 29.7797 33.3912 29.6462L34.835 29.0168C35.2334 28.8431 35.7061 29.0073 35.911 29.3906L37.0526 31.5262C37.2869 31.9644 37.5423 32.3891 37.8145 32.8014L35.8849 33.5644C34.9561 32.876 33.861 32.477 32.7253 32.3992C32.8303 32.1277 32.8871 31.8351 32.8871 31.5334ZM23.8659 33.8068V32.8566C23.8659 32.5637 24.1042 32.3253 24.3974 32.3253C24.5392 32.3253 24.6727 32.3806 24.7731 32.4809C26.5216 34.2295 29.1041 34.7288 31.3747 33.7658L31.4723 33.7483C32.5564 33.5536 33.6552 33.7431 34.5984 34.2675L31.7533 36.0148C29.5464 37.3701 26.8581 37.7209 24.3775 36.977L22.8896 36.5308C23.5217 35.7652 23.8659 34.8125 23.8659 33.8068ZM21.732 42.0382H22.5445C23.3831 42.0382 24.0983 42.5759 24.3643 43.3245H21.732V42.0382ZM50.5796 47.9402H54.746C56.8161 47.9402 58.8151 47.3715 60.5672 46.2932C59.9671 49.0109 57.5403 51.0508 54.6447 51.0508H22.5886C20.8304 51.0508 19.3891 49.6682 19.2944 47.9331L21.4385 44.6136H26.655C27.6473 44.6136 28.5799 45 29.2815 45.7016L29.6205 46.0406C30.8455 47.2654 32.474 47.94 34.2061 47.94H47.754C48.11 47.94 48.3985 47.6514 48.3985 47.2955C48.3985 46.9395 48.11 46.651 47.754 46.651H34.206C33.4282 46.651 32.6765 46.481 31.9932 46.1591L33.5411 42.0544C33.6667 41.7213 33.4986 41.3495 33.1655 41.2239C32.8324 41.0984 32.4606 41.2665 32.335 41.5996L30.8832 45.4491C30.7623 45.3481 30.6448 45.2419 30.5319 45.1291L30.193 44.7902C29.2479 43.8451 27.9914 43.3247 26.6549 43.3247H25.6995C25.4001 41.857 24.0993 40.7493 22.5445 40.7493H21.732V38.9587C21.732 38.4875 21.8407 38.0333 22.045 37.6236L24.0072 38.212C26.8391 39.0611 29.9084 38.6608 32.4279 37.1135L34.5087 35.8356L33.2339 39.2158C33.1082 39.5488 33.2764 39.9208 33.6095 40.0463C33.6844 40.0746 33.7613 40.0879 33.8369 40.0879C34.0974 40.0879 34.3427 39.9288 34.4401 39.6707L36.2788 34.7951L38.5919 33.8807C38.7317 34.0584 38.876 34.2323 39.0231 34.4038L36.8362 37.0706C36.6105 37.3458 36.6507 37.752 36.9259 37.9776C37.0459 38.0759 37.1904 38.1238 37.3343 38.1238C37.5207 38.1238 37.7055 38.0434 37.8331 37.888L39.909 35.3565C40.305 35.7488 40.7213 36.1208 41.1569 36.4705L40.1372 39.5426C40.0251 39.8805 40.208 40.2453 40.5459 40.3573C40.6133 40.3797 40.6817 40.3903 40.749 40.3903C41.0192 40.3903 41.2708 40.2191 41.3606 39.9487L42.2486 37.2732C42.5136 37.4514 42.7832 37.6233 43.0593 37.7859L43.5634 38.0827L43.3726 41.118C43.3503 41.4733 43.6202 41.7794 43.9755 41.8018C43.9892 41.8026 44.0029 41.8031 44.0165 41.8031C44.3541 41.8031 44.6378 41.5404 44.6593 41.1989L44.809 38.8161L46.3203 39.7059L46.4633 42.0224C46.4843 42.3641 46.7681 42.6272 47.106 42.6272C47.1193 42.6272 47.1328 42.6268 47.1463 42.6259C47.5016 42.604 47.7718 42.2981 47.7498 41.9429L47.6605 40.4949L47.7857 40.5687C48.4457 40.9573 49.1282 41.3024 49.8278 41.6037L49.847 42.4967C49.8545 42.8479 50.1416 43.1274 50.4911 43.1274C50.4958 43.1274 50.5004 43.1274 50.5052 43.1273C50.8611 43.1196 51.1433 42.8249 51.1357 42.4691L51.1279 42.1063C53.0319 42.7597 55.0393 43.098 57.0669 43.098H58.8242C59.7561 43.098 60.5323 43.777 60.684 44.6662L60.3532 44.8959C58.6989 46.0442 56.7599 46.6511 54.746 46.6511H50.5796C50.2235 46.6511 49.935 46.9397 49.935 47.2957C49.935 47.6516 50.2235 47.9402 50.5796 47.9402Z" fill="#242424"/>
<path d="M27.1309 47.782C27.4966 47.782 27.7931 47.4855 27.7931 47.1198C27.7931 46.754 27.4966 46.4575 27.1309 46.4575C26.7651 46.4575 26.4686 46.754 26.4686 47.1198C26.4686 47.4855 26.7651 47.782 27.1309 47.782Z" fill="#242424"/>
<path d="M24.6713 47.782C25.0371 47.782 25.3336 47.4855 25.3336 47.1198C25.3336 46.754 25.0371 46.4575 24.6713 46.4575C24.3056 46.4575 24.0091 46.754 24.0091 47.1198C24.0091 47.4855 24.3056 47.782 24.6713 47.782Z" fill="#242424"/>
<path d="M22.1103 47.782C22.476 47.782 22.7725 47.4855 22.7725 47.1198C22.7725 46.754 22.476 46.4575 22.1103 46.4575C21.7446 46.4575 21.4481 46.754 21.4481 47.1198C21.4481 47.4855 21.7446 47.782 22.1103 47.782Z" fill="#242424"/>
</svg>
