<svg width="80" height="80" viewBox="0 0 80 80" fill="none" xmlns="http://www.w3.org/2000/svg">
<rect width="80" height="80" rx="40" fill="#FBFBFB"/>
<path d="M56.2116 36.2922C56.0022 36.0828 55.7494 35.9242 55.4708 35.8206C55.8091 35.3585 56.0194 34.8268 56.0728 34.2821C56.1467 33.5275 55.9038 32.8094 55.4064 32.3119C55.0341 31.9396 54.5575 31.7235 54.0463 31.6579C54.1318 31.4148 54.1888 31.1645 54.2137 30.9114C54.2937 30.0948 54.042 29.3492 53.5048 28.812C53.0251 28.3323 52.3792 28.0807 51.6651 28.0894C51.6872 27.9821 51.7043 27.874 51.7149 27.7654C51.7949 26.9488 51.5432 26.2032 51.006 25.666C50.5479 25.2079 49.9379 24.9584 49.262 24.944C49.3284 24.7193 49.374 24.4901 49.3967 24.2592C49.4894 23.3141 49.1993 22.4526 48.5802 21.8334C47.9612 21.2143 47.1 20.9241 46.1545 21.017C45.2641 21.1043 44.3992 21.5269 43.7192 22.2069C43.0392 22.8869 42.6165 23.7518 42.5293 24.6422C42.4366 25.5873 42.7266 26.4487 43.3457 27.0679C43.8893 27.6115 44.6195 27.9013 45.4292 27.9013C45.5418 27.9013 45.6561 27.8957 45.7715 27.8844C45.7933 27.8822 45.815 27.879 45.8368 27.8765C45.705 28.7194 45.9258 29.5608 46.5185 30.1535C47.0011 30.6362 47.6486 30.8725 48.3277 30.8725C48.338 30.8725 48.3486 30.8718 48.359 30.8717C48.3364 30.9804 48.319 31.09 48.3082 31.2001C48.2282 32.0167 48.4799 32.7623 49.0171 33.2994C49.4493 33.7317 50.0165 33.9785 50.6468 34.0171C50.5987 34.1866 50.5655 34.3593 50.5484 34.5334C50.4745 35.288 50.7173 36.0061 51.2147 36.5036C51.5117 36.8005 51.8752 36.9976 52.2694 37.0989C51.6771 38.0769 51.7291 39.2838 52.4743 40.0292C52.883 40.4379 53.4305 40.6383 54.0032 40.6383C54.6888 40.6383 55.4102 40.3508 55.9717 39.7894C57.002 38.7592 57.1097 37.1903 56.2116 36.2922ZM45.6264 26.4044C45.1324 26.4529 44.696 26.3151 44.3974 26.0164C44.0988 25.7178 43.961 25.2814 44.0095 24.7874C44.0632 24.2388 44.3336 23.6959 44.7709 23.2587C45.208 22.8215 45.7509 22.5511 46.2996 22.4973C46.3645 22.4909 46.4282 22.4878 46.4908 22.4878C46.9056 22.4878 47.2691 22.6259 47.5285 22.8853C47.8271 23.1838 47.965 23.6203 47.9165 24.1142C47.8627 24.6628 47.5923 25.2057 47.1551 25.643C46.7179 26.0803 46.175 26.3506 45.6264 26.4044ZM47.5701 29.1021C47.0902 28.6221 47.2308 27.6706 47.8769 27.0245C48.2635 26.6379 48.7594 26.4323 49.1981 26.4323C49.4927 26.4323 49.7616 26.525 49.9543 26.7178C50.4343 27.1977 50.2937 28.1491 49.6476 28.7952C49.0013 29.4413 48.0501 29.5819 47.5701 29.1021ZM49.7883 31.3454C49.8296 30.9252 50.0381 30.508 50.3756 30.1705C50.7131 29.833 51.1303 29.6245 51.5505 29.5833C51.5993 29.5785 51.6472 29.5761 51.6942 29.5761C51.9995 29.5761 52.2653 29.6759 52.453 29.8638C52.6697 30.0804 52.7693 30.401 52.7335 30.7663C52.6922 31.1865 52.4838 31.6037 52.1463 31.9412C52.1462 31.9412 52.1462 31.9412 52.1462 31.9412C51.8087 32.2787 51.3916 32.4872 50.9714 32.5284C50.6057 32.5642 50.2854 32.4646 50.0688 32.2479C49.8521 32.0313 49.7526 31.7107 49.7883 31.3454ZM52.0286 34.6787C52.0642 34.3148 52.2531 33.9377 52.5468 33.6441C52.8882 33.3027 53.3248 33.1205 53.7085 33.1205C53.9609 33.1205 54.1905 33.1994 54.3547 33.3637C54.6033 33.6122 54.6104 33.9549 54.5925 34.1371C54.5569 34.501 54.368 34.8781 54.0744 35.1717C54.0743 35.1717 54.0743 35.1717 54.0743 35.1717C53.5084 35.7377 52.6804 35.8663 52.2664 35.4521C52.0178 35.2035 52.0107 34.8608 52.0286 34.6787ZM54.9201 38.7378C54.4772 39.1807 53.839 39.2905 53.5261 38.9777C53.2132 38.6648 53.323 38.0263 53.7659 37.5835C53.9996 37.3496 54.2982 37.1995 54.5851 37.1714C54.6123 37.1687 54.6442 37.1667 54.6793 37.1667C54.821 37.1667 55.0147 37.1985 55.1599 37.3438C55.4727 37.6567 55.3629 38.295 54.9201 38.7378Z" fill="#242424"/>
<path d="M49.8038 48.6156H48.2168V47.3473C49.8313 45.4981 50.6279 42.7701 50.3536 39.9793C50.0153 36.5362 48.1209 33.4295 45.0193 31.2315C43.2988 30.012 41.2869 29.4976 39.4995 29.8204C37.9856 30.0938 36.7158 30.9296 35.8273 32.2371C35.5965 32.5768 35.6848 33.0393 36.0245 33.2702C36.3642 33.501 36.8268 33.4127 37.0575 33.073C37.7163 32.1033 38.6521 31.4847 39.7638 31.2839C41.1605 31.0315 42.7626 31.4547 44.1593 32.4449C46.9037 34.3896 48.578 37.1171 48.8734 40.1246C49.0762 42.1879 48.6091 44.1946 47.6086 45.6977C47.2988 45.4285 46.8949 45.265 46.4534 45.265H43.7107C42.7383 45.265 41.9473 46.056 41.9473 47.0283V48.6154H40.3602C39.3879 48.6154 38.5968 49.4064 38.5968 50.3787V51.2721C37.7058 51.8566 36.9565 52.4636 36.3153 53.1201C35.9537 53.4905 35.6037 53.8805 35.265 54.2577C33.7895 55.9013 32.3959 57.4537 30.0304 57.5111C28.4869 57.5488 26.8398 56.5388 25.7256 54.876C24.6858 53.3244 24.3897 51.5652 24.9528 50.2848C25.8287 48.2919 27.5494 47.5146 29.5417 46.6147C29.8526 46.4742 30.1742 46.3289 30.4933 46.1781C32.3083 45.3201 33.8241 43.8729 34.7608 42.1038C34.889 41.8626 35.0027 41.6144 35.1088 41.3442C35.3541 40.718 35.5251 40.0419 35.6471 39.2165C35.7072 38.8101 35.4266 38.4321 35.0203 38.372C34.6138 38.3119 34.236 38.5926 34.1759 38.9988C34.0707 39.7101 33.9271 40.2831 33.7242 40.8011C33.6393 41.0174 33.5487 41.2153 33.4469 41.4069C32.6589 42.8949 31.3843 44.1118 29.8577 44.8334C29.5502 44.9788 29.2346 45.1213 28.9294 45.2592C26.8484 46.1992 24.6966 47.1712 23.5913 49.6862C22.8138 51.4541 23.1497 53.7037 24.4901 55.7038C25.8585 57.7458 27.9407 58.9993 29.9498 58.9992C29.9887 58.9992 30.0277 58.9988 30.0665 58.9978C33.0738 58.9248 34.8259 56.973 36.3718 55.251C36.7001 54.8852 37.0397 54.507 37.3795 54.159C37.7403 53.7895 38.1447 53.4362 38.5968 53.0922V53.1213C38.5968 54.0936 39.3879 54.8847 40.3602 54.8847H41.9473V56.4717C41.9473 57.444 42.7383 58.2351 43.7107 58.2351H46.4534C47.4257 58.2351 48.2167 57.444 48.2167 56.4717V54.8847H49.8038C50.7761 54.8847 51.5671 54.0936 51.5671 53.1213V50.3785C51.5672 49.4066 50.7761 48.6156 49.8038 48.6156ZM50.0799 53.1217C50.0799 53.2739 49.956 53.3978 49.8038 53.3978H47.4731C47.0625 53.3978 46.7294 53.7307 46.7294 54.1414V56.4722C46.7294 56.6244 46.6056 56.7483 46.4534 56.7483H43.7107C43.5584 56.7483 43.4346 56.6244 43.4346 56.4722V54.1414C43.4346 53.7308 43.1016 53.3978 42.6909 53.3978H40.3601C40.2079 53.3978 40.084 53.2739 40.084 53.1217V50.3789C40.084 50.2267 40.2079 50.1028 40.3601 50.1028H42.6909C43.1015 50.1028 43.4346 49.7699 43.4346 49.3592V47.0284C43.4346 46.8762 43.5584 46.7523 43.7107 46.7523H46.4534C46.6056 46.7523 46.7294 46.8762 46.7294 47.0284V49.3592C46.7294 49.7698 47.0624 50.1028 47.4731 50.1028H49.8038C49.956 50.1028 50.0799 50.2267 50.0799 50.3789V53.1217Z" fill="#242424"/>
<path d="M34.9902 36.4747C35.3733 36.6201 35.8018 36.4272 35.9471 36.0441C36.0924 35.661 35.8996 35.2326 35.5165 35.0872C35.1334 34.9419 34.7049 35.1347 34.5596 35.5178C34.4142 35.901 34.6071 36.3294 34.9902 36.4747Z" fill="#242424"/>
</svg>
